<svg version="1.1" id="Layer_1" xmlns="http://www.w3.org/2000/svg" xmlns:xlink="http://www.w3.org/1999/xlink" x="0px" y="0px"
	 width="100%" viewBox="0 0 116 89" enable-background="new 0 0 116 89" xml:space="preserve">
<path fill="#FDFDFD" opacity="1.000000" stroke="none" 
	d="
M117.000000,49.000000 
	C117.000000,62.593334 117.000000,76.186668 117.000000,90.000000 
	C103.646576,90.000000 90.291946,90.000000 76.629578,89.616943 
	C81.245430,87.848885 86.169022,86.463898 91.061722,85.067970 
	C91.030830,85.057037 91.027931,85.122345 91.289902,85.037048 
	C91.738060,84.648621 91.924255,84.345490 92.388199,83.954079 
	C93.119263,83.521576 93.572571,83.177353 94.352234,82.910736 
	C95.487854,82.340164 96.297134,81.691963 97.058640,81.040863 
	C97.010864,81.037964 97.018784,81.133354 97.348236,81.070740 
	C98.407333,80.335617 99.136986,79.663109 100.007164,78.685135 
	C102.114929,76.288231 104.082176,74.196800 106.415359,72.059723 
	C108.869377,68.052986 110.957436,64.091896 113.399811,59.952980 
	C114.277977,58.012081 114.801826,56.249016 115.422180,54.161179 
	C111.840942,54.161179 108.924538,54.161179 105.595734,54.082664 
	C103.789017,54.055279 102.394699,54.106407 100.631516,54.081978 
	C99.171982,55.004581 98.081306,56.002739 96.654892,57.124451 
	C93.900101,63.948349 88.947632,68.227173 82.447266,71.546326 
	C80.049973,72.194504 78.019478,72.673431 75.552216,73.076736 
	C72.756081,73.061470 70.396713,73.121826 67.711174,73.037048 
	C65.952599,72.238960 64.520195,71.585999 62.972290,70.653709 
	C62.285763,70.231506 61.714752,70.088638 61.009819,69.636757 
	C60.394051,69.437714 59.912209,69.547684 59.262688,69.786972 
	C59.095009,69.916275 59.135448,70.337837 59.137016,70.596786 
	C59.310463,70.871880 59.482338,70.888031 59.638020,70.321312 
	C58.944901,69.736076 58.267979,69.733719 57.631935,69.787460 
	C57.672817,69.843559 57.646755,69.707207 57.658752,69.640823 
	C57.670750,69.574440 57.705406,69.444054 57.925705,69.121819 
	C57.774830,68.153923 57.403660,67.508270 56.966751,66.623688 
	C56.289494,66.216881 55.677971,66.049019 54.945374,65.560135 
	C53.565071,64.121353 52.305840,63.003578 51.027325,61.527149 
	C50.283764,59.767097 49.559494,58.365704 48.911873,56.558151 
	C48.663441,53.748959 48.338364,51.345928 48.465153,48.811546 
	C59.618153,48.542793 70.319283,48.405392 81.465195,48.416149 
	C93.606644,48.709538 105.303322,48.854771 117.000000,49.000000 
z"/>
<path fill="#FDFDFD" opacity="1.000000" stroke="none" 
	d="
M77.000000,1.000000 
	C90.260902,1.000000 103.521797,1.000000 117.000000,1.000000 
	C117.000000,14.353442 117.000000,27.708063 116.628448,41.403389 
	C115.837135,40.043465 115.413109,38.343880 114.998375,36.642029 
	C113.388199,30.034698 111.754677,23.439899 105.994690,18.659718 
	C105.767944,18.102156 105.500740,17.939550 105.007057,17.620277 
	C99.520393,12.393998 95.063423,6.188915 86.965538,4.620218 
	C83.528946,3.178865 80.264473,2.089432 77.000000,1.000000 
z"/>
<path fill="#FCFCFC" opacity="1.000000" stroke="none" 
	d="
M1.000000,36.000000 
	C1.000000,24.403706 1.000000,12.807410 1.000000,1.000000 
	C13.353427,1.000000 25.708055,1.000000 38.430046,1.349334 
	C37.848370,2.435063 36.899326,3.171458 35.698952,3.959960 
	C35.284519,4.063984 35.121426,4.115898 34.624306,4.188975 
	C33.492428,4.525042 32.694569,4.839946 31.545990,5.094623 
	C30.960241,5.066707 30.725214,5.099018 30.510857,5.096088 
	C30.531527,5.060847 30.533428,5.142540 30.272791,4.880996 
	C26.654610,6.403201 23.297064,8.186952 19.968401,9.984755 
	C19.997282,9.998808 19.963404,9.944233 19.707226,9.969681 
	C19.281498,10.275230 19.111946,10.555334 18.627813,10.896954 
	C17.856804,11.292807 17.400377,11.627144 16.971523,11.978512 
	C16.999096,11.995542 16.976868,11.934655 16.707926,11.992649 
	C16.270926,12.359724 16.102865,12.668803 15.965494,12.986935 
	C15.996181,12.995988 15.978600,12.934460 15.710289,12.994160 
	C15.272841,13.362433 15.103703,13.671005 14.965396,13.987892 
	C14.996227,13.996207 14.979617,13.934540 14.711180,13.994385 
	C14.273434,14.362941 14.104125,14.671651 13.965636,14.988361 
	C13.996456,14.996362 13.980358,14.934748 13.712866,14.995268 
	C13.275244,15.363198 13.105113,15.670608 12.965273,15.987873 
	C12.995564,15.997728 12.970278,15.939255 12.649979,16.034096 
	C11.532067,17.410357 10.734455,18.691780 9.966597,19.985643 
	C9.996349,19.998083 9.965745,19.941309 9.664545,20.031267 
	C9.226487,20.717749 9.089628,21.314274 8.577986,21.958815 
	C7.085458,24.322498 5.967710,26.638163 4.508532,29.128168 
	C4.103422,30.835064 4.039743,32.367622 3.676719,33.997097 
	C3.247486,34.683384 3.117599,35.272755 2.786446,35.932526 
	C2.585181,36.002934 2.179678,36.134949 1.885631,36.093590 
	C1.394389,36.034821 1.197194,36.017410 1.000000,36.000000 
z"/>
<path fill="#FDFDFD" opacity="1.000000" stroke="none" 
	d="
M38.000000,90.000000 
	C25.742104,90.000000 13.484206,90.000000 1.000000,90.000000 
	C1.000000,78.646774 1.000000,67.292046 1.293753,55.447861 
	C1.781521,54.928375 1.975536,54.898338 2.360285,54.920242 
	C2.551019,54.972179 2.941850,55.031479 2.972348,55.454834 
	C3.416294,57.753639 3.829742,59.629086 4.375076,61.722755 
	C5.021201,62.067623 5.535440,62.194271 6.031311,62.611397 
	C6.063938,63.283909 6.114932,63.665936 6.089970,64.432678 
	C6.004348,65.479073 5.738799,66.288452 6.022850,66.780624 
	C11.563807,76.381332 18.771675,84.024391 30.392593,86.922157 
	C33.224072,87.621773 35.662025,88.241997 38.060638,89.145401 
	C38.014202,89.619057 38.007099,89.809532 38.000000,90.000000 
z"/>
<path fill="#040113" opacity="1.000000" stroke="none" 
	d="
M117.000000,48.600006 
	C105.303322,48.854771 93.606644,48.709538 81.448105,48.140625 
	C80.902122,47.359562 80.818008,47.002186 80.750488,46.478138 
	C80.767075,46.311466 80.787735,45.976505 81.111771,45.901924 
	C81.566643,45.215691 81.697495,44.604038 81.891823,43.658051 
	C81.890335,42.878559 81.825363,42.433403 81.850586,41.980499 
	C81.940781,41.972752 82.106819,42.044930 82.467285,42.033920 
	C83.548805,42.016361 84.269859,42.009815 84.999504,42.328232 
	C85.033821,43.085827 85.059540,43.518459 85.062004,44.289749 
	C85.067261,45.078442 85.095772,45.528473 85.392792,46.288078 
	C92.394936,46.731827 99.128967,46.972816 105.862007,46.947617 
	C108.556351,46.937534 111.248505,46.341030 114.243439,45.887592 
	C115.363480,45.509151 116.181740,45.254578 117.000000,45.000000 
	C117.000000,46.066669 117.000000,47.133339 117.000000,48.600006 
z"/>
<path fill="#03041B" opacity="1.000000" stroke="none" 
	d="
M76.555832,1.000000 
	C80.264473,2.089432 83.528946,3.178865 86.537048,4.638603 
	C84.854111,5.018770 83.427544,5.028631 81.533798,5.028656 
	C72.821312,4.282182 64.815201,5.499766 56.973671,7.587725 
	C57.017071,6.443746 57.049129,5.681260 57.470264,4.956019 
	C61.572895,3.662177 65.286446,2.331088 69.000000,1.000000 
	C71.370560,1.000000 73.741112,1.000000 76.555832,1.000000 
z"/>
<path fill="#03041D" opacity="1.000000" stroke="none" 
	d="
M91.092613,85.078903 
	C86.169022,86.463898 81.245430,87.848885 76.160919,89.616943 
	C73.958336,90.000000 71.916664,90.000000 69.324165,89.637619 
	C66.835304,88.554718 64.897278,87.834198 62.977066,86.825790 
	C63.008831,86.346138 63.022778,86.154366 63.430019,85.978104 
	C65.886497,86.314850 67.949677,86.636086 70.424438,86.964027 
	C72.206383,86.932678 73.576752,86.894630 75.358604,86.900780 
	C77.552635,86.337204 79.335182,85.729424 81.523628,85.100250 
	C83.284943,85.052971 84.640366,85.027084 86.084198,85.166428 
	C86.434151,85.211517 86.695686,85.091377 86.977798,84.979347 
	C86.998375,84.987457 86.973030,84.950592 87.385452,84.963394 
	C88.896118,85.010429 89.994370,85.044662 91.092613,85.078903 
z"/>
<path fill="#040420" opacity="1.000000" stroke="none" 
	d="
M117.000000,44.625000 
	C116.181740,45.254578 115.363480,45.509151 114.001312,45.884594 
	C113.457397,46.005463 112.972015,45.988991 113.014168,45.625454 
	C113.054497,43.500164 113.052666,41.738411 113.031448,39.574585 
	C110.691216,32.414371 108.370361,25.656233 106.049500,18.898094 
	C111.754677,23.439899 113.388199,30.034698 114.998375,36.642029 
	C115.413109,38.343880 115.837135,40.043465 116.628448,41.872047 
	C117.000000,42.750000 117.000000,43.500000 117.000000,44.625000 
z"/>
<path fill="#260102" opacity="1.000000" stroke="none" 
	d="
M35.950283,3.907851 
	C36.899326,3.171458 37.848370,2.435063 38.898705,1.349334 
	C41.370556,1.000000 43.741116,1.000000 46.679649,1.363466 
	C49.843056,2.454134 52.438484,3.181338 55.009895,4.216586 
	C54.436436,5.355543 53.886990,6.186455 53.175949,6.644140 
	C51.014942,5.893668 49.015526,5.516424 46.682640,5.107984 
	C45.904625,5.036899 45.460083,4.997011 44.804161,4.639580 
	C41.788078,4.441819 38.983379,4.561600 36.144833,4.481133 
	C36.110981,4.280886 35.950283,3.907851 35.950283,3.907851 
z"/>
<path fill="#FCFBFC" opacity="1.000000" stroke="none" 
	d="
M55.033909,3.908540 
	C52.438484,3.181338 49.843056,2.454134 47.123817,1.363466 
	C54.020947,1.000000 61.041897,1.000000 68.531418,1.000000 
	C65.286446,2.331088 61.572895,3.662177 57.356911,4.658051 
	C56.247623,4.184738 55.640766,4.046639 55.033909,3.908540 
z"/>
<path fill="#FBFCFB" opacity="1.000000" stroke="none" 
	d="
M62.959255,87.113678 
	C64.897278,87.834198 66.835304,88.554718 68.886665,89.637619 
	C62.312355,90.000000 55.624710,90.000000 48.482952,89.726974 
	C47.999523,89.274040 47.970211,89.094139 47.983376,88.725006 
	C48.025852,88.535774 48.056652,88.149155 48.477520,88.091019 
	C51.572514,87.647736 54.246635,87.262581 57.296600,86.927200 
	C58.155754,86.862335 58.639072,86.747688 59.499191,86.725456 
	C60.903751,86.916473 61.931503,87.015076 62.959255,87.113678 
z"/>
<path fill="#AB1918" opacity="1.000000" stroke="none" 
	d="
M1.000000,51.000000 
	C1.000000,49.933212 1.000000,48.866425 1.386415,47.400009 
	C2.101324,45.333633 2.429818,43.666882 2.854445,41.695988 
	C3.265643,40.872356 3.580710,40.352871 3.952054,40.304909 
	C4.019071,44.190685 4.029811,47.604935 3.796798,50.997658 
	C3.553045,50.976135 3.070804,50.897373 2.734926,50.820168 
	C2.172957,50.783852 1.946867,50.824745 1.545720,50.926788 
	C1.370662,50.987934 1.000000,51.000000 1.000000,51.000000 
z"/>
<path fill="#160002" opacity="1.000000" stroke="none" 
	d="
M2.758312,42.000134 
	C2.429818,43.666882 2.101324,45.333633 1.386415,47.000191 
	C1.000000,45.285641 1.000000,43.571285 1.234245,41.527859 
	C1.898431,41.465908 2.328372,41.733021 2.758312,42.000134 
z"/>
<path fill="#BFB4B0" opacity="1.000000" stroke="none" 
	d="
M47.940895,88.914246 
	C47.970211,89.094139 47.999523,89.274040 48.014420,89.726974 
	C44.969406,90.000000 41.938812,90.000000 38.454109,90.000000 
	C38.007099,89.809532 38.014202,89.619057 38.503792,89.200714 
	C41.971149,88.953300 44.956024,88.933769 47.940895,88.914246 
z"/>
<path fill="#310303" opacity="1.000000" stroke="none" 
	d="
M2.854445,41.695988 
	C2.328372,41.733021 1.898431,41.465908 1.234245,41.099396 
	C1.000000,41.000000 1.000000,40.500000 1.352829,40.145073 
	C1.863665,38.571743 2.021672,37.353348 2.179678,36.134949 
	C2.179678,36.134949 2.585181,36.002934 2.802752,36.237297 
	C3.255975,37.016773 3.491626,37.561882 3.786974,38.338058 
	C3.846672,38.569130 4.032159,39.008934 3.994965,39.214531 
	C3.957770,39.420132 3.895775,39.833385 3.895775,39.833385 
	C3.580710,40.352871 3.265643,40.872356 2.854445,41.695988 
z"/>
<path fill="#BDB8AF" opacity="1.000000" stroke="none" 
	d="
M1.885631,36.093590 
	C2.021672,37.353348 1.863665,38.571743 1.352829,39.895073 
	C1.000000,38.933361 1.000000,37.866722 1.000000,36.400040 
	C1.197194,36.017410 1.394389,36.034821 1.885631,36.093590 
z"/>
<path fill="#C4B5B1" opacity="1.000000" stroke="none" 
	d="
M1.000000,51.399818 
	C1.000000,51.000000 1.370662,50.987934 1.655753,51.320297 
	C2.017079,52.724545 2.093315,53.796425 2.169550,54.868305 
	C1.975536,54.898338 1.781521,54.928375 1.293753,54.979202 
	C1.000000,53.933212 1.000000,52.866425 1.000000,51.399818 
z"/>
<path fill="#02025F" opacity="1.000000" stroke="none" 
	d="
M85.995781,85.001190 
	C84.640366,85.027084 83.284943,85.052971 81.105133,85.061401 
	C78.502869,85.648163 76.724991,86.252373 74.947121,86.856575 
	C73.576752,86.894630 72.206383,86.932678 70.262337,86.615997 
	C69.442230,84.479454 69.195801,82.697639 68.972885,80.698593 
	C68.996399,80.481346 69.046074,80.047142 69.273941,79.936340 
	C69.718071,79.567131 69.934334,79.308723 70.486374,79.039490 
	C71.910202,78.391045 72.998260,77.753426 74.374382,77.064789 
	C75.121948,76.690216 75.581444,76.366661 76.356552,75.874847 
	C78.788780,74.818207 80.905411,73.929832 83.397011,73.026947 
	C92.961441,70.979683 96.596718,63.575462 100.363800,56.083237 
	C100.584908,56.081596 101.029633,56.064850 101.358795,56.064674 
	C103.130119,56.021214 104.572273,55.977932 106.425430,55.952522 
	C108.203003,55.992081 109.569588,56.013767 110.957436,56.432953 
	C110.163536,59.490742 109.377724,62.160492 108.524582,64.808556 
	C107.737068,67.252922 106.877335,69.674019 106.049416,72.105370 
	C104.082176,74.196800 102.114929,76.288231 99.686615,78.714355 
	C98.489944,79.743820 97.754364,80.438583 97.018784,81.133354 
	C97.018784,81.133354 97.010864,81.037964 96.710876,81.026802 
	C95.947723,81.016647 95.484543,81.017662 94.617966,81.011887 
	C91.109848,81.052261 87.925911,80.954002 86.973030,84.950592 
	C86.973030,84.950592 86.998375,84.987457 86.737579,84.984848 
	C86.476784,84.982231 85.995781,85.001190 85.995781,85.001190 
z"/>
<path fill="#02025F" opacity="1.000000" stroke="none" 
	d="
M48.835220,56.964314 
	C49.559494,58.365704 50.283764,59.767097 51.016281,61.914085 
	C51.015408,65.088501 51.006294,67.517326 50.629211,69.969162 
	C48.842060,70.329178 47.422890,70.666183 45.634159,70.987732 
	C42.566494,69.317719 39.868385,67.663147 37.088345,65.692154 
	C36.652023,64.615349 36.297634,63.854984 36.099392,62.744892 
	C36.225372,60.843342 36.332153,59.273750 36.133644,57.743771 
	C35.818748,55.316738 35.299801,52.916180 34.823421,50.260475 
	C40.518063,49.995049 45.730000,48.202232 47.018318,55.348923 
	C47.131390,55.976181 48.206795,56.429958 48.835220,56.964314 
z"/>
<path fill="#300101" opacity="1.000000" stroke="none" 
	d="
M80.733894,46.644814 
	C80.818008,47.002186 80.902122,47.359562 81.003326,47.992462 
	C70.319283,48.405392 59.618153,48.542793 48.161949,48.527397 
	C42.257618,48.622604 37.108356,48.870602 31.499022,49.062023 
	C26.761803,49.005444 22.484657,49.005444 18.013533,49.005444 
	C18.426178,51.564812 18.780617,53.763157 18.856983,55.795654 
	C17.771788,54.752926 16.964663,53.876045 15.959862,52.666496 
	C15.562834,50.588573 15.363479,48.843323 15.504334,47.059616 
	C16.286091,46.908188 16.727634,46.795208 17.463657,46.667717 
	C18.134129,46.547096 18.510120,46.440987 19.273193,46.509270 
	C21.056999,46.685265 22.453726,46.686871 24.264431,46.766235 
	C25.223467,46.737511 25.768526,46.631027 26.413990,46.507389 
	C26.514395,46.490234 26.569241,46.294037 26.963543,46.382618 
	C27.620169,46.409771 27.882490,46.348339 28.419312,46.381989 
	C29.074589,46.439644 29.455364,46.402222 30.170811,46.464691 
	C30.721512,46.477722 30.937542,46.390862 31.436302,46.393215 
	C32.106464,46.431553 32.493896,46.380676 33.319138,46.502350 
	C36.547623,46.573845 39.338299,46.472794 42.415993,46.448338 
	C43.091347,46.469879 43.479683,46.414818 44.252899,46.522369 
	C45.735844,46.677025 46.833904,46.669067 48.215042,46.732048 
	C48.689011,46.765430 48.879906,46.727879 49.531227,46.735527 
	C55.367641,46.638489 60.743626,46.496246 66.561951,46.463306 
	C71.580826,46.596676 76.157364,46.620743 80.733894,46.644814 
z"/>
<path fill="#05021D" opacity="1.000000" stroke="none" 
	d="
M31.959097,49.118603 
	C37.108356,48.870602 42.257618,48.622604 47.710083,48.658752 
	C48.338364,51.345928 48.663441,53.748959 48.911873,56.558151 
	C48.206795,56.429958 47.131390,55.976181 47.018318,55.348923 
	C45.730000,48.202232 40.518063,49.995049 34.823421,50.260475 
	C35.299801,52.916180 35.818748,55.316738 36.133644,57.743771 
	C36.332153,59.273750 36.225372,60.843342 35.755928,62.584351 
	C34.157242,58.221889 33.058170,53.670246 31.959097,49.118603 
z"/>
<path fill="#040423" opacity="1.000000" stroke="none" 
	d="
M100.142700,56.084877 
	C96.596718,63.575462 92.961441,70.979683 83.346375,72.610489 
	C82.885208,71.931389 82.849640,71.654236 82.814079,71.377075 
	C88.947632,68.227173 93.900101,63.948349 96.983063,57.092503 
	C98.478874,56.652966 99.310783,56.368919 100.142700,56.084877 
z"/>
<path fill="#030423" opacity="1.000000" stroke="none" 
	d="
M106.415359,72.059723 
	C106.877335,69.674019 107.737068,67.252922 108.524582,64.808556 
	C109.377724,62.160492 110.163536,59.490742 111.331543,56.485142 
	C112.138084,57.470161 112.591797,58.800488 113.045502,60.130814 
	C110.957436,64.091896 108.869377,68.052986 106.415359,72.059723 
z"/>
<path fill="#040342" opacity="1.000000" stroke="none" 
	d="
M50.997185,69.946152 
	C51.006294,67.517326 51.015408,65.088501 51.035568,62.272743 
	C52.305840,63.003578 53.565071,64.121353 55.176216,65.880455 
	C56.029583,66.635399 56.531036,66.749008 57.032494,66.862617 
	C57.403660,67.508270 57.774830,68.153923 57.563309,68.956261 
	C56.311775,69.403976 55.642941,69.695007 54.937866,70.195160 
	C54.901627,70.404282 54.789352,70.813370 54.410660,70.835571 
	C53.021172,70.893723 52.010376,70.929665 51.000793,70.710739 
	C51.000401,70.285965 50.998791,70.116058 50.997185,69.946152 
z"/>
<path fill="#020213" opacity="1.000000" stroke="none" 
	d="
M113.399811,59.952980 
	C112.591797,58.800488 112.138084,57.470161 111.310272,56.087646 
	C109.569588,56.013767 108.203003,55.992081 106.420441,55.657684 
	C106.005692,54.950375 106.006912,54.555775 106.008133,54.161179 
	C108.924538,54.161179 111.840942,54.161179 115.422180,54.161179 
	C114.801826,56.249016 114.277977,58.012081 113.399811,59.952980 
z"/>
<path fill="#070548" opacity="1.000000" stroke="none" 
	d="
M87.385452,84.963394 
	C87.925911,80.954002 91.109848,81.052261 94.525642,81.255005 
	C94.566444,81.947647 94.296158,82.390388 94.025879,82.833130 
	C93.572571,83.177353 93.119263,83.521576 92.143677,84.061333 
	C91.423576,84.545364 91.225754,84.833855 91.027931,85.122345 
	C91.027931,85.122345 91.030830,85.057037 91.061722,85.067970 
	C89.994370,85.044662 88.896118,85.010429 87.385452,84.963394 
z"/>
<path fill="#100101" opacity="1.000000" stroke="none" 
	d="
M68.037354,73.182175 
	C70.396713,73.121826 72.756081,73.061470 75.555611,73.384766 
	C75.994675,74.179123 75.993568,74.589836 75.695862,75.017746 
	C75.202393,75.056549 75.005508,75.078148 74.418221,75.064941 
	C72.709938,75.010864 71.392059,74.991608 69.804749,74.912857 
	C69.352921,74.877365 69.170532,74.901367 68.721359,74.828300 
	C68.092003,74.624390 67.729446,74.517555 67.398697,74.310036 
	C67.430504,74.209351 67.508324,74.013031 67.624069,73.893784 
	C67.872719,73.594017 67.971901,73.396568 68.037354,73.182175 
z"/>
<path fill="#010214" opacity="1.000000" stroke="none" 
	d="
M75.992455,75.000542 
	C75.993568,74.589836 75.994675,74.179123 75.992386,73.460388 
	C78.019478,72.673431 80.049973,72.194504 82.447266,71.546326 
	C82.849640,71.654236 82.885208,71.931389 82.971405,72.625000 
	C80.905411,73.929832 78.788780,74.818207 76.342903,75.614090 
	C76.006592,75.347923 75.999527,75.174232 75.992455,75.000542 
z"/>
<path fill="#280100" opacity="1.000000" stroke="none" 
	d="
M67.711174,73.037048 
	C67.971901,73.396568 67.872719,73.594017 67.285141,73.845154 
	C66.603050,73.909859 66.375641,73.903938 65.851334,73.890015 
	C65.360008,73.919350 65.165565,73.956696 64.756989,73.849846 
	C64.393669,73.619812 64.244484,73.533981 63.969353,73.317291 
	C63.644295,73.034767 63.420502,72.943680 63.112988,72.925377 
	C63.053955,72.937592 62.968338,73.022484 62.846611,72.769287 
	C62.467983,72.241714 62.211086,71.967331 61.961166,71.551682 
	C61.968140,71.410423 61.976433,71.127678 62.254829,71.082169 
	C62.718082,71.002129 62.902943,70.967583 63.087803,70.933044 
	C64.520195,71.585999 65.952599,72.238960 67.711174,73.037048 
z"/>
<path fill="#040423" opacity="1.000000" stroke="none" 
	d="
M105.595734,54.082664 
	C106.006912,54.555775 106.005692,54.950375 106.009445,55.639809 
	C104.572273,55.977932 103.130119,56.021214 101.349533,55.746071 
	C101.007538,55.004276 101.003967,54.580906 101.000397,54.157536 
	C102.394699,54.106407 103.789017,54.055279 105.595734,54.082664 
z"/>
<path fill="#020213" opacity="1.000000" stroke="none" 
	d="
M100.631523,54.081978 
	C101.003967,54.580906 101.007538,55.004276 101.020370,55.746246 
	C101.029633,56.064850 100.584908,56.081596 100.363800,56.083237 
	C99.310783,56.368919 98.478874,56.652966 97.318802,56.968956 
	C98.081306,56.002739 99.171982,55.004581 100.631523,54.081978 
z"/>
<path fill="#B02023" opacity="1.000000" stroke="none" 
	d="
M59.654217,70.904190 
	C59.482338,70.888031 59.310463,70.871880 59.387070,70.832069 
	C59.848362,70.873436 60.061169,70.938469 60.261803,71.177780 
	C60.249630,71.352043 60.230366,71.701584 59.820778,71.804688 
	C58.287079,71.929276 57.162968,71.950760 56.066345,71.743637 
	C56.093830,71.515030 56.176582,71.061295 56.301849,70.904343 
	C56.427120,70.747383 56.581791,70.376717 56.905037,70.300018 
	C57.367779,70.051270 57.507267,69.879234 57.646755,69.707207 
	C57.646755,69.707207 57.672817,69.843559 57.833900,70.168060 
	C58.548058,70.629776 59.101139,70.766983 59.654217,70.904190 
z"/>
<path fill="#03031A" opacity="1.000000" stroke="none" 
	d="
M94.352234,82.910744 
	C94.296158,82.390388 94.566444,81.947647 94.929047,81.261787 
	C95.484543,81.017662 95.947723,81.016647 96.758652,81.029709 
	C96.297134,81.691963 95.487854,82.340164 94.352234,82.910744 
z"/>
<path fill="#070919" opacity="1.000000" stroke="none" 
	d="
M97.348236,81.070740 
	C97.754364,80.438583 98.489944,79.743820 99.546082,79.019829 
	C99.136986,79.663109 98.407333,80.335617 97.348236,81.070740 
z"/>
<path fill="#4E0909" opacity="1.000000" stroke="none" 
	d="
M62.972290,70.653702 
	C62.902943,70.967583 62.718082,71.002129 62.016846,71.118416 
	C61.500465,71.200165 61.033737,71.323143 60.846680,71.236382 
	C60.659626,71.149620 60.273979,71.003510 60.273979,71.003510 
	C60.061169,70.938469 59.848362,70.873436 59.385502,70.573120 
	C59.135448,70.337837 59.095009,69.916275 59.678368,69.944626 
	C60.555729,69.963921 60.849735,69.954849 61.143742,69.945770 
	C61.714752,70.088638 62.285763,70.231506 62.972290,70.653702 
z"/>
<path fill="#050113" opacity="1.000000" stroke="none" 
	d="
M57.658752,69.640823 
	C57.507267,69.879234 57.367779,70.051270 56.507469,70.176849 
	C55.515804,70.082275 55.244953,70.034164 54.974106,69.986038 
	C55.642941,69.695007 56.311775,69.403976 57.343010,69.278496 
	C57.705406,69.444054 57.670750,69.574440 57.658752,69.640823 
z"/>
<path fill="#050113" opacity="1.000000" stroke="none" 
	d="
M56.966751,66.623688 
	C56.531036,66.749008 56.029583,66.635399 55.297291,66.201469 
	C55.677971,66.049019 56.289494,66.216881 56.966751,66.623688 
z"/>
<path fill="#03041D" opacity="1.000000" stroke="none" 
	d="
M91.289902,85.037048 
	C91.225754,84.833855 91.423576,84.545364 91.865921,84.149612 
	C91.924255,84.345490 91.738060,84.648621 91.289902,85.037048 
z"/>
<path fill="#210004" opacity="1.000000" stroke="none" 
	d="
M61.009819,69.636757 
	C60.849735,69.954849 60.555729,69.963921 59.846046,69.815323 
	C59.912209,69.547684 60.394051,69.437714 61.009819,69.636757 
z"/>
<path fill="#210004" opacity="1.000000" stroke="none" 
	d="
M59.638020,70.321312 
	C59.101139,70.766983 58.548058,70.629776 57.793018,70.111969 
	C58.267979,69.733719 58.944901,69.736076 59.638020,70.321312 
z"/>
<path fill="#02015F" opacity="1.000000" stroke="none" 
	d="
M105.994690,18.659718 
	C108.370361,25.656233 110.691216,32.414371 112.737991,39.831165 
	C112.073738,43.229813 110.638779,44.268360 107.765732,44.070354 
	C103.821312,43.798508 99.834122,43.842552 95.886551,44.090363 
	C94.548569,44.174358 93.275200,45.287720 91.559921,45.945534 
	C89.772247,45.958244 88.396942,45.956100 86.974106,45.643700 
	C86.312790,44.872662 85.699028,44.411877 85.085258,43.951092 
	C85.059540,43.518459 85.033821,43.085827 85.259018,42.091415 
	C85.362427,38.726318 85.214920,35.923000 85.520203,33.093857 
	C89.631599,33.038055 93.290207,33.008080 97.280640,32.818871 
	C99.482002,29.848240 100.582230,27.231701 95.968979,26.035866 
	C95.994881,26.002804 95.931679,26.058451 95.905411,25.708500 
	C94.929794,24.899788 93.980446,24.441025 92.762703,23.864204 
	C91.997276,23.161516 91.500252,22.576881 90.897018,21.773449 
	C90.593117,21.281528 90.333031,21.095730 89.992126,20.768875 
	C89.973686,20.540497 89.955826,20.082603 89.891571,19.900537 
	C89.552017,19.815155 89.276711,19.911840 88.636681,19.970299 
	C84.179497,17.376528 80.042534,15.008768 74.633255,16.794685 
	C73.945419,16.818565 73.551437,16.816378 72.880920,16.584349 
	C71.058365,16.558170 69.512344,16.761833 67.735939,17.084715 
	C67.284904,17.467501 67.064255,17.731068 66.566696,18.008846 
	C65.846748,18.315317 65.403702,18.607574 64.541763,18.921062 
	C62.937859,19.480158 61.752831,20.018024 60.554184,20.526573 
	C60.540565,20.497259 60.554768,20.566662 60.173820,20.687210 
	C58.212883,22.249193 56.632896,23.690626 55.048561,25.087147 
	C55.044212,25.042236 55.133904,25.052206 54.782425,25.062357 
	C53.898201,26.001987 53.365456,26.931465 52.590553,28.001072 
	C51.913101,28.473383 51.477806,28.805569 50.661652,29.294666 
	C46.548931,29.575781 42.817070,29.699986 39.026695,29.496122 
	C39.421677,27.498695 39.633022,25.710947 40.379196,24.184671 
	C41.923031,21.026817 43.751457,18.008099 45.255333,14.828333 
	C45.047821,14.724507 44.606480,14.602374 44.693100,14.486568 
	C44.950211,14.235783 45.017303,14.061008 45.164143,13.909960 
	C45.347282,13.973482 45.728661,14.043141 46.124107,14.079741 
	C50.000481,12.067299 53.481403,10.018258 56.962330,7.969217 
	C64.815201,5.499766 72.821312,4.282182 81.741920,5.301390 
	C87.473343,8.399371 92.516113,11.239143 97.591278,14.019774 
	C100.075882,15.381058 102.620705,16.632412 105.138275,17.933521 
	C105.500740,17.939550 105.767944,18.102156 105.994690,18.659718 
z"/>
<path fill="#0D0D47" opacity="1.000000" stroke="none" 
	d="
M105.007057,17.620275 
	C102.620705,16.632412 100.075882,15.381058 97.591278,14.019774 
	C92.516113,11.239143 87.473343,8.399371 82.209106,5.311225 
	C83.427544,5.028631 84.854111,5.018770 86.709167,4.990524 
	C95.063423,6.188915 99.520393,12.393998 105.007057,17.620275 
z"/>
<path fill="#E50203" opacity="1.000000" stroke="none" 
	d="
M45.728661,14.043141 
	C45.728661,14.043141 45.347282,13.973482 44.957500,13.667931 
	C43.503376,13.768781 42.439034,14.175183 41.374691,14.581585 
	C41.854591,15.090660 42.334488,15.599737 42.659081,16.384920 
	C41.360054,17.200953 40.216331,17.740879 38.705971,18.208309 
	C36.548939,18.738243 34.758545,19.340675 32.690697,19.963444 
	C31.973368,20.268894 31.533497,20.554008 30.823332,20.926949 
	C30.096851,21.334036 29.640663,21.653299 28.860250,21.870586 
	C25.403412,20.554478 24.561787,22.577858 23.996275,24.992073 
	C24.001139,24.999590 23.985189,24.993855 23.749619,25.081787 
	C23.337429,25.445871 23.160807,25.722023 22.866337,26.212954 
	C22.518143,26.670019 22.244183,26.843390 21.578062,26.995531 
	C19.164795,28.684494 16.966171,30.299240 20.289940,32.987396 
	C20.523094,33.012814 20.988317,33.072765 21.178265,33.307533 
	C22.262081,33.413605 23.155952,33.284908 24.506281,33.137245 
	C28.628859,33.132252 32.294979,33.146229 36.284927,33.416573 
	C42.085083,33.497608 47.561413,33.322281 53.483467,33.132103 
	C56.603794,33.134430 59.278397,33.151611 62.123177,33.362232 
	C62.877602,33.423080 63.461857,33.290489 64.406792,33.133945 
	C65.487297,33.063019 66.207115,33.016041 67.262390,32.933655 
	C70.067688,29.930592 72.537544,26.962933 75.317604,23.998398 
	C76.041618,24.007236 76.455421,24.012951 77.047340,24.241600 
	C77.661102,24.818813 78.096748,25.173094 78.516571,25.852943 
	C78.630844,26.815331 78.760948,27.452145 78.888206,28.450779 
	C78.936272,29.535452 78.987183,30.258308 78.799561,31.160896 
	C79.117470,31.845451 79.673897,32.350277 80.203491,32.890190 
	C80.176643,32.925274 80.122391,32.855541 80.147392,33.093082 
	C80.292450,33.643974 80.505005,33.870495 80.890106,34.289528 
	C81.013145,34.953163 81.056129,35.337456 81.016296,36.035969 
	C80.895798,36.563522 80.858124,36.776855 80.607285,37.198772 
	C80.576637,38.276398 80.759155,39.145443 81.033951,40.215843 
	C81.276642,40.685936 81.494530,40.878227 81.848923,41.260731 
	C81.980927,41.699902 82.043869,41.872414 82.106819,42.044930 
	C82.106819,42.044930 81.940781,41.972752 81.646729,42.172009 
	C81.227417,42.909840 81.102165,43.448414 80.888535,44.202988 
	C80.796021,44.938164 80.791878,45.457333 80.787735,45.976505 
	C80.787735,45.976505 80.767075,46.311466 80.750488,46.478142 
	C76.157364,46.620743 71.580826,46.596676 66.375671,46.147163 
	C60.168827,45.467976 54.590595,45.214237 48.917953,44.800362 
	C48.544926,44.745792 48.266308,44.851357 47.638535,44.963066 
	C46.148930,45.432724 45.008472,45.896240 43.868015,46.359756 
	C43.479683,46.414818 43.091347,46.469879 42.241173,46.139595 
	C38.813332,45.946102 35.847332,46.137951 32.881329,46.329800 
	C32.493896,46.380676 32.106464,46.431553 31.372158,46.218681 
	C30.628902,46.091549 30.232523,46.228172 29.836142,46.364799 
	C29.455364,46.402222 29.074589,46.439644 28.321896,46.162735 
	C27.266251,45.820271 26.582523,45.792141 25.589863,45.804295 
	C24.867283,45.807423 24.453636,45.770275 23.773678,45.516613 
	C21.966948,45.645027 20.426531,45.989952 18.886112,46.334877 
	C18.510120,46.440987 18.134129,46.547096 17.306461,46.492035 
	C16.604246,46.127983 16.321720,45.991093 15.907469,45.767010 
	C15.577747,45.770882 15.347768,45.927933 15.108056,46.339233 
	C15.120257,46.761673 15.142190,46.929871 15.164124,47.098068 
	C15.363479,48.843323 15.562834,50.588573 15.923590,53.038876 
	C16.772690,55.572826 17.065918,57.728962 18.244961,59.150269 
	C19.824677,61.054562 22.090113,62.390015 24.031925,63.982674 
	C24.002722,63.995640 24.020555,63.934277 23.947575,64.280449 
	C24.272196,64.742966 24.669800,64.859306 25.036175,64.985382 
	C25.004946,64.995125 25.024553,64.932709 24.946663,65.281387 
	C25.268223,65.744713 25.667677,65.859367 26.036022,65.984573 
	C26.004915,65.995132 26.026112,65.932945 25.942413,66.283646 
	C26.260857,66.748192 26.662996,66.862038 27.034660,66.987106 
	C27.004185,66.998329 27.036982,66.942261 26.860283,67.265320 
	C27.458540,68.316124 28.233494,69.043869 29.226822,69.913040 
	C29.658201,70.319969 29.871212,70.585472 30.096695,71.226273 
	C33.746662,73.067917 37.282440,75.021637 41.061367,75.810242 
	C43.187878,76.254021 45.715607,74.775223 48.428425,74.121361 
	C49.532227,74.055519 50.270191,74.030861 51.400864,74.008446 
	C53.209068,73.365517 54.624557,72.720337 56.014015,72.049728 
	C55.987984,72.024292 56.038857,71.972237 56.038857,71.972244 
	C57.162968,71.950760 58.287079,71.929276 59.801979,71.858307 
	C60.192768,71.808823 60.083260,71.817009 60.219528,72.112679 
	C60.762062,72.512314 61.168327,72.616272 61.542648,72.782349 
	C61.510696,72.844475 61.498001,72.705338 61.858810,72.816025 
	C62.469196,72.958633 62.718769,72.990555 62.968338,73.022484 
	C62.968338,73.022484 63.053955,72.937592 63.181274,73.136810 
	C63.308590,73.336021 63.674644,73.583405 63.674644,73.583405 
	C63.674644,73.583405 64.095306,73.448158 64.095306,73.448158 
	C64.244484,73.533981 64.393669,73.619812 64.747879,74.112053 
	C64.958557,74.693237 64.964203,74.868011 64.976944,75.452759 
	C64.981560,77.229485 64.979073,78.596237 64.944489,80.180374 
	C64.912392,80.397758 64.873657,80.835541 64.683472,80.894394 
	C64.493294,80.953247 64.100876,81.020645 63.839478,81.087105 
	C63.377472,81.437019 63.176861,81.720474 62.983200,81.995178 
	C62.990150,81.986427 63.010654,81.977531 62.665253,81.980530 
	C61.889961,82.460602 61.460072,82.937675 60.788914,83.630638 
	C59.377384,84.257423 58.207127,84.668312 56.636841,85.089447 
	C53.610336,85.490791 50.983864,85.881882 47.873444,86.179405 
	C44.449474,86.149300 41.509449,86.212761 38.213417,86.287758 
	C36.918175,86.175133 35.978943,86.050972 34.967319,85.575989 
	C29.605663,82.807358 24.316399,80.389557 19.013645,77.984985 
	C19.000153,77.998215 19.027622,77.968155 18.997440,77.625061 
	C16.665627,75.184708 14.363998,73.087448 11.909405,70.682358 
	C9.892936,68.265671 8.029431,66.156815 6.165927,64.047966 
	C6.114932,63.665936 6.063938,63.283909 6.043489,62.273930 
	C6.033978,61.425377 5.993924,61.204769 5.920727,60.773785 
	C5.887585,60.563412 5.838397,60.140320 5.904335,59.754379 
	C5.975325,58.586906 5.980377,57.805370 5.911744,56.812462 
	C5.689712,56.332016 5.477638,56.129791 5.147961,55.754539 
	C5.094084,55.514664 4.995189,55.033005 5.015058,54.687889 
	C4.694091,53.556499 4.353255,52.770229 3.947860,51.998993 
	C3.883301,52.014030 3.753812,52.042461 3.865820,51.797943 
	C3.998736,51.375343 4.019644,51.197266 4.040552,51.019184 
	C4.029811,47.604935 4.019071,44.190685 3.952053,40.304909 
	C3.895775,39.833385 3.957770,39.420132 4.271018,38.984505 
	C4.647238,37.604595 4.710211,36.660313 4.780305,35.349434 
	C5.241757,33.358978 5.696088,31.735121 6.358091,29.940826 
	C6.622626,29.427032 6.679489,29.083672 6.816764,28.405405 
	C7.600494,26.384426 8.303811,24.698355 9.291586,22.799091 
	C9.705944,21.704369 9.835845,20.822840 9.965745,19.941309 
	C9.965745,19.941309 9.996349,19.998083 10.340345,20.118132 
	C11.446321,18.805204 12.208299,17.372229 12.970278,15.939255 
	C12.970278,15.939255 12.995564,15.997728 13.315479,16.074558 
	C13.750382,15.745843 13.865370,15.340295 13.980358,14.934748 
	C13.980358,14.934748 13.996456,14.996362 14.315580,15.069195 
	C14.749675,14.739532 14.864645,14.337036 14.979616,13.934540 
	C14.979617,13.934540 14.996227,13.996207 15.315685,14.069475 
	C15.749629,13.739981 15.864114,13.337220 15.978600,12.934460 
	C15.978600,12.934460 15.996181,12.995988 16.318840,13.075651 
	C16.753288,12.748427 16.865078,12.341541 16.976868,11.934655 
	C16.976868,11.934655 16.999096,11.995542 17.292257,12.173744 
	C18.053864,12.179104 18.522306,12.006261 19.300713,11.731922 
	C19.728249,11.068362 19.845827,10.506298 19.963404,9.944233 
	C19.963404,9.944233 19.997282,9.998808 20.331411,10.107395 
	C22.487350,9.450727 24.309162,8.685473 26.450340,7.955121 
	C27.831398,7.429387 28.893087,6.868750 30.128414,6.031103 
	C30.379177,5.550243 30.456303,5.346391 30.533428,5.142540 
	C30.533428,5.142540 30.531527,5.060847 30.652376,5.296406 
	C31.147720,5.406260 31.522217,5.280555 31.896711,5.154850 
	C32.694569,4.839946 33.492428,4.525042 34.759743,4.404502 
	C35.545692,4.626371 35.862190,4.653875 36.178684,4.681380 
	C38.983379,4.561600 41.788078,4.441819 44.765274,4.992878 
	C43.995811,8.196999 43.895660,10.374858 47.150681,11.421883 
	C46.621456,12.509448 46.175056,13.276295 45.728661,14.043141 
z"/>
<path fill="#3B090A" opacity="1.000000" stroke="none" 
	d="
M30.272791,4.880996 
	C30.456303,5.346391 30.379177,5.550243 29.817596,5.998654 
	C28.265753,6.802216 27.198362,7.361217 26.130972,7.920219 
	C24.309162,8.685473 22.487350,9.450727 20.302530,10.093342 
	C23.297064,8.186952 26.654610,6.403201 30.272791,4.880996 
z"/>
<path fill="#310607" opacity="1.000000" stroke="none" 
	d="
M9.007128,23.012281 
	C8.303811,24.698355 7.600494,26.384426 6.603164,28.463932 
	C6.309151,28.857367 5.879147,28.968819 5.621794,28.969040 
	C5.192948,28.964115 5.021455,28.958971 4.849963,28.953829 
	C5.967710,26.638163 7.085458,24.322498 8.595497,22.233936 
	C8.994235,22.644789 9.000681,22.828535 9.007128,23.012281 
z"/>
<path fill="#3A0000" opacity="1.000000" stroke="none" 
	d="
M4.508532,29.128168 
	C5.021455,28.958971 5.192948,28.964115 5.670076,29.259426 
	C6.033948,29.736813 6.092183,29.924038 6.150419,30.111261 
	C5.696088,31.735121 5.241757,33.358978 4.587522,35.432804 
	C4.387617,35.882771 4.005790,36.059715 4.011646,35.699783 
	C4.003690,34.859959 3.989877,34.380066 3.976065,33.900177 
	C4.039743,32.367622 4.103422,30.835064 4.508532,29.128168 
z"/>
<path fill="#2F0100" opacity="1.000000" stroke="none" 
	d="
M12.649978,16.034096 
	C12.208299,17.372229 11.446321,18.805204 10.310593,20.105692 
	C10.734455,18.691780 11.532067,17.410357 12.649978,16.034096 
z"/>
<path fill="#610101" opacity="1.000000" stroke="none" 
	d="
M3.676719,33.997097 
	C3.989877,34.380066 4.003690,34.859959 4.014218,36.045959 
	C3.916382,37.203712 3.821829,37.655354 3.727277,38.106991 
	C3.491626,37.561882 3.255975,37.016773 3.004018,36.166893 
	C3.117599,35.272755 3.247486,34.683384 3.676719,33.997097 
z"/>
<path fill="#2F0100" opacity="1.000000" stroke="none" 
	d="
M9.291586,22.799091 
	C9.000681,22.828535 8.994235,22.644789 8.970280,22.185921 
	C9.089628,21.314274 9.226487,20.717749 9.664545,20.031267 
	C9.835845,20.822840 9.705944,21.704369 9.291586,22.799091 
z"/>
<path fill="#3B090A" opacity="1.000000" stroke="none" 
	d="
M19.707226,9.969681 
	C19.845827,10.506298 19.728249,11.068362 19.285126,11.482690 
	C18.959579,11.334952 18.942396,10.835438 18.942396,10.835438 
	C19.111946,10.555334 19.281498,10.275230 19.707226,9.969681 
z"/>
<path fill="#2F0100" opacity="1.000000" stroke="none" 
	d="
M18.627813,10.896954 
	C18.942396,10.835438 18.959579,11.334952 18.975166,11.584185 
	C18.522306,12.006261 18.053864,12.179104 17.264685,12.156713 
	C17.400377,11.627144 17.856804,11.292807 18.627813,10.896954 
z"/>
<path fill="#2F0100" opacity="1.000000" stroke="none" 
	d="
M15.710289,12.994160 
	C15.864114,13.337220 15.749629,13.739981 15.284855,14.061159 
	C15.103703,13.671005 15.272841,13.362433 15.710289,12.994160 
z"/>
<path fill="#2F0100" opacity="1.000000" stroke="none" 
	d="
M16.707926,11.992649 
	C16.865078,12.341541 16.753288,12.748427 16.288153,13.066598 
	C16.102865,12.668803 16.270926,12.359724 16.707926,11.992649 
z"/>
<path fill="#3B090A" opacity="1.000000" stroke="none" 
	d="
M31.545990,5.094623 
	C31.522217,5.280555 31.147720,5.406260 30.631706,5.331647 
	C30.725214,5.099018 30.960241,5.066707 31.545990,5.094623 
z"/>
<path fill="#710B0C" opacity="1.000000" stroke="none" 
	d="
M36.144833,4.481133 
	C35.862190,4.653875 35.545692,4.626371 35.093765,4.383339 
	C35.121426,4.115898 35.284519,4.063984 35.698952,3.959960 
	C35.950283,3.907851 36.110981,4.280886 36.144833,4.481133 
z"/>
<path fill="#2F0100" opacity="1.000000" stroke="none" 
	d="
M13.712866,14.995268 
	C13.865370,15.340295 13.750382,15.745843 13.285189,16.064703 
	C13.105113,15.670608 13.275244,15.363198 13.712866,14.995268 
z"/>
<path fill="#2F0100" opacity="1.000000" stroke="none" 
	d="
M14.711179,13.994385 
	C14.864645,14.337036 14.749675,14.739532 14.284760,15.061195 
	C14.104125,14.671651 14.273434,14.362941 14.711179,13.994385 
z"/>
<path fill="#350303" opacity="1.000000" stroke="none" 
	d="
M6.089971,64.432678 
	C8.029431,66.156815 9.892936,68.265671 11.882604,71.031342 
	C14.348387,73.781487 16.688005,75.874817 19.027622,77.968155 
	C19.027622,77.968155 19.000153,77.998215 19.131088,78.307037 
	C22.849714,81.030792 26.437405,83.445724 30.019270,86.106201 
	C30.013447,86.351753 29.999065,86.842766 29.999065,86.842766 
	C18.771675,84.024391 11.563807,76.381332 6.022850,66.780624 
	C5.738799,66.288452 6.004348,65.479073 6.089971,64.432678 
z"/>
<path fill="#250202" opacity="1.000000" stroke="none" 
	d="
M30.392593,86.922157 
	C29.999065,86.842766 30.013447,86.351753 30.434896,86.156662 
	C32.250801,85.949982 33.645256,85.938400 35.039711,85.926811 
	C35.978943,86.050972 36.918175,86.175133 38.565475,86.547668 
	C42.189720,86.930107 45.105896,87.064178 48.019108,87.436394 
	C48.016148,87.674545 48.056652,88.149155 48.056652,88.149155 
	C48.056652,88.149155 48.025852,88.535774 47.983376,88.725006 
	C44.956024,88.933769 41.971149,88.953300 38.543129,88.917526 
	C35.662025,88.241997 33.224072,87.621773 30.392593,86.922157 
z"/>
<path fill="#280101" opacity="1.000000" stroke="none" 
	d="
M5.838397,60.140320 
	C5.838397,60.140320 5.887585,60.563412 5.633993,60.856316 
	C5.001331,61.267658 4.622260,61.386093 4.243190,61.504532 
	C3.829742,59.629086 3.416294,57.753639 3.169380,55.450691 
	C3.335915,55.023193 3.729671,55.001606 3.814640,55.330154 
	C4.225689,56.459812 4.551771,57.260925 4.924017,58.355358 
	C5.259587,59.145893 5.548992,59.643108 5.838397,60.140320 
z"/>
<path fill="#310303" opacity="1.000000" stroke="none" 
	d="
M3.729671,55.001606 
	C3.729671,55.001606 3.335915,55.023193 3.138883,55.027336 
	C2.941850,55.031479 2.551019,54.972179 2.360285,54.920242 
	C2.093315,53.796425 2.017079,52.724545 1.830810,51.259151 
	C1.946867,50.824745 2.172957,50.783852 2.775395,51.050476 
	C3.267562,51.660839 3.468251,51.888996 3.753812,52.042461 
	C3.753812,52.042461 3.883301,52.014030 3.895923,52.372551 
	C3.960017,53.482166 4.011488,54.233265 3.979024,54.976830 
	C3.895089,54.969292 3.729671,55.001606 3.729671,55.001606 
z"/>
<path fill="#A41318" opacity="1.000000" stroke="none" 
	d="
M4.375076,61.722755 
	C4.622260,61.386093 5.001331,61.267658 5.667135,61.066689 
	C5.993924,61.204769 6.033978,61.425377 6.061856,61.983452 
	C5.535440,62.194271 5.021201,62.067623 4.375076,61.722755 
z"/>
<path fill="#161541" opacity="1.000000" stroke="none" 
	d="
M87.021645,45.953953 
	C88.396942,45.956100 89.772247,45.958244 92.030930,45.967804 
	C99.600212,45.979813 106.286110,45.984402 112.972015,45.988991 
	C112.972015,45.988991 113.457397,46.005463 113.699524,46.008461 
	C111.248505,46.341030 108.556351,46.937534 105.862007,46.947617 
	C99.128967,46.972816 92.394936,46.731827 85.707428,46.291901 
	C86.176254,45.975414 86.598953,45.964684 87.021645,45.953953 
z"/>
<path fill="#060342" opacity="1.000000" stroke="none" 
	d="
M82.467285,42.033920 
	C82.043869,41.872414 81.980927,41.699902 81.959335,41.034241 
	C82.077644,40.391739 82.154594,40.242386 82.473557,39.809460 
	C83.118340,37.359863 83.521111,35.193840 84.210655,33.039749 
	C84.687416,33.074348 84.877419,33.097015 85.067413,33.119682 
	C85.214920,35.923000 85.362427,38.726318 85.250420,41.766457 
	C84.269859,42.009815 83.548805,42.016361 82.467285,42.033920 
z"/>
<path fill="#060342" opacity="1.000000" stroke="none" 
	d="
M86.974106,45.643700 
	C86.598953,45.964684 86.176254,45.975414 85.438927,45.982327 
	C85.095772,45.528473 85.067261,45.078442 85.062004,44.289749 
	C85.699028,44.411877 86.312790,44.872662 86.974106,45.643700 
z"/>
<path fill="#BF1717" opacity="1.000000" stroke="none" 
	d="
M81.111771,45.901924 
	C80.791878,45.457333 80.796021,44.938164 81.101517,44.206520 
	C81.402870,43.994045 81.828339,43.992390 81.828339,43.992390 
	C81.697495,44.604038 81.566643,45.215691 81.111771,45.901924 
z"/>
<path fill="#CA0E0A" opacity="1.000000" stroke="none" 
	d="
M81.891823,43.658051 
	C81.828339,43.992390 81.402870,43.994045 81.189888,43.990517 
	C81.102165,43.448414 81.227417,42.909840 81.556534,42.179756 
	C81.825363,42.433403 81.890335,42.878559 81.891823,43.658051 
z"/>
<path fill="#20010C" opacity="1.000000" stroke="none" 
	d="
M46.124107,14.079741 
	C46.175056,13.276295 46.621456,12.509448 47.348923,11.431078 
	C47.629990,11.119555 48.000336,10.971449 48.258446,10.931093 
	C48.700989,10.608356 48.885414,10.325974 49.037209,10.024137 
	C49.004574,10.004682 49.042831,10.070333 49.293716,9.995574 
	C49.731678,9.638784 49.918758,9.356753 50.064537,9.040615 
	C50.023235,9.006508 50.072861,9.101452 50.406403,9.080087 
	C51.605808,8.378270 52.471676,7.697820 53.337543,7.017368 
	C53.886990,6.186455 54.436436,5.355543 55.009895,4.216585 
	C55.640766,4.046639 56.247623,4.184738 56.967834,4.620805 
	C57.049129,5.681260 57.017071,6.443746 56.973671,7.587725 
	C53.481403,10.018258 50.000481,12.067299 46.124107,14.079741 
z"/>
<path fill="#070548" opacity="1.000000" stroke="none" 
	d="
M68.949371,80.915833 
	C69.195801,82.697639 69.442230,84.479454 69.850761,86.609291 
	C67.949677,86.636086 65.886497,86.314850 63.544670,85.683746 
	C64.193375,84.248634 65.120728,83.123390 66.261421,81.875870 
	C66.743240,81.534927 66.904152,81.254494 66.963463,80.934296 
	C66.969429,80.956284 66.924309,80.935387 67.262054,80.959282 
	C68.049660,80.960724 68.499519,80.938278 68.949371,80.915833 
z"/>
<path fill="#13040B" opacity="1.000000" stroke="none" 
	d="
M66.048073,81.998138 
	C65.120728,83.123390 64.193375,84.248634 63.151375,85.668236 
	C63.022778,86.154366 63.008831,86.346138 62.977066,86.825798 
	C61.931503,87.015076 60.903751,86.916473 59.314396,86.502586 
	C58.182175,86.152328 57.611561,86.117355 57.043510,85.831573 
	C57.043007,85.413582 57.039940,85.246391 57.036869,85.079201 
	C58.207127,84.668312 59.377384,84.257423 61.099426,83.521042 
	C62.104359,82.789551 62.557507,82.383537 63.010654,81.977531 
	C63.010654,81.977531 62.990150,81.986427 63.240852,82.013474 
	C63.663452,82.032013 63.835350,82.023499 64.347115,82.023384 
	C65.140678,82.020569 65.594376,82.009354 66.048073,81.998138 
z"/>
<path fill="#070548" opacity="1.000000" stroke="none" 
	d="
M75.358604,86.900780 
	C76.724991,86.252373 78.502869,85.648163 80.699234,85.082794 
	C79.335182,85.729424 77.552635,86.337204 75.358604,86.900780 
z"/>
<path fill="#070548" opacity="1.000000" stroke="none" 
	d="
M86.084198,85.166428 
	C85.995781,85.001190 86.476784,84.982231 86.716995,84.976730 
	C86.695686,85.091377 86.434151,85.211517 86.084198,85.166428 
z"/>
<path fill="#070651" opacity="1.000000" stroke="none" 
	d="
M113.014168,45.625454 
	C106.286110,45.984402 99.600212,45.979813 92.443306,45.952950 
	C93.275200,45.287720 94.548569,44.174358 95.886551,44.090363 
	C99.834122,43.842552 103.821312,43.798508 107.765732,44.070354 
	C110.638779,44.268360 112.073738,43.229813 112.757378,40.233238 
	C113.052666,41.738411 113.054497,43.500164 113.014168,45.625454 
z"/>
<path fill="#DD0608" opacity="1.000000" stroke="none" 
	d="
M48.000336,10.971449 
	C48.000336,10.971449 47.629990,11.119555 47.431747,11.110359 
	C43.895660,10.374858 43.995811,8.196999 44.976658,5.310420 
	C45.460083,4.997011 45.904625,5.036899 46.905197,5.334028 
	C49.644493,5.784646 50.973343,6.613720 50.072861,9.101452 
	C50.072861,9.101452 50.023235,9.006508 49.809460,9.108479 
	C49.411400,9.497078 49.227116,9.783705 49.042831,10.070333 
	C49.042831,10.070333 49.004574,10.004682 48.795135,10.093870 
	C48.390575,10.445856 48.195457,10.708653 48.000336,10.971449 
z"/>
<path fill="#C01010" opacity="1.000000" stroke="none" 
	d="
M50.406403,9.080087 
	C50.973343,6.613720 49.644493,5.784646 47.238670,5.365225 
	C49.015526,5.516424 51.014942,5.893668 53.175949,6.644140 
	C52.471676,7.697820 51.605808,8.378270 50.406403,9.080087 
z"/>
<path fill="#380304" opacity="1.000000" stroke="none" 
	d="
M56.636841,85.089447 
	C57.039940,85.246391 57.043007,85.413582 57.025093,86.031662 
	C57.004112,86.482552 56.920761,86.877426 56.920761,86.877426 
	C54.246635,87.262581 51.572514,87.647736 48.477520,88.091019 
	C48.056652,88.149155 48.016148,87.674545 48.099945,87.203735 
	C48.183743,86.732925 48.357391,86.272964 48.357391,86.272964 
	C50.983864,85.881882 53.610336,85.490791 56.636841,85.089447 
z"/>
<path fill="#6B7263" opacity="1.000000" stroke="none" 
	d="
M57.296600,86.927200 
	C56.920761,86.877426 57.004112,86.482552 57.022530,86.282471 
	C57.611561,86.117355 58.182175,86.152328 58.937592,86.410172 
	C58.639072,86.747688 58.155754,86.862335 57.296600,86.927200 
z"/>
<path fill="#600202" opacity="1.000000" stroke="none" 
	d="
M3.865820,51.797943 
	C3.468251,51.888996 3.267562,51.660839 3.111274,51.127678 
	C3.070804,50.897373 3.553045,50.976135 3.796798,50.997658 
	C4.019644,51.197266 3.998736,51.375343 3.865820,51.797943 
z"/>
<path fill="#AD1318" opacity="1.000000" stroke="none" 
	d="
M3.786974,38.338058 
	C3.821829,37.655354 3.916382,37.203712 4.008362,36.405895 
	C4.005790,36.059715 4.387617,35.882771 4.580400,35.799400 
	C4.710211,36.660313 4.647238,37.604595 4.308212,38.778908 
	C4.032159,39.008934 3.846672,38.569130 3.786974,38.338058 
z"/>
<path fill="#1E0007" opacity="1.000000" stroke="none" 
	d="
M74.086311,77.115814 
	C72.998260,77.753426 71.910202,78.391045 70.374519,78.980064 
	C69.926895,78.931465 69.694832,78.829895 69.786942,78.648659 
	C69.879044,78.467422 70.048386,78.097771 70.386475,78.072105 
	C71.749573,77.604683 72.774582,77.162926 73.867546,76.822540 
	C73.935493,76.923912 74.086311,77.115807 74.086311,77.115814 
z"/>
<path fill="#270315" opacity="1.000000" stroke="none" 
	d="
M75.695862,75.017746 
	C75.999527,75.174232 76.006592,75.347923 76.027298,75.782364 
	C75.581444,76.366661 75.121948,76.690216 74.374382,77.064789 
	C74.086311,77.115807 73.935493,76.923912 74.005844,76.623383 
	C74.320343,75.915154 74.564491,75.507454 74.808640,75.099754 
	C75.005508,75.078148 75.202393,75.056549 75.695862,75.017746 
z"/>
<path fill="#360002" opacity="1.000000" stroke="none" 
	d="
M68.972885,80.698593 
	C68.499519,80.938278 68.049660,80.960724 67.302277,80.710991 
	C67.033257,80.273560 67.061745,80.108322 67.333725,79.871529 
	C67.887054,79.667267 68.196915,79.534561 68.641136,79.563568 
	C68.775497,79.725281 69.046074,80.047142 69.046074,80.047142 
	C69.046074,80.047142 68.996399,80.481346 68.972885,80.698593 
z"/>
<path fill="#360002" opacity="1.000000" stroke="none" 
	d="
M70.038750,78.990891 
	C69.934334,79.308723 69.718071,79.567131 69.273941,79.936340 
	C69.046074,80.047142 68.775497,79.725281 68.831451,79.449371 
	C69.133087,79.003761 69.402222,78.889244 69.694832,78.829895 
	C69.694832,78.829895 69.926895,78.931465 70.038750,78.990891 
z"/>
<path fill="#FCFBFB" opacity="1.000000" stroke="none" 
	d="
M31.499022,49.062023 
	C33.058170,53.670246 34.157242,58.221889 35.599781,62.934074 
	C36.297634,63.854984 36.652023,64.615349 37.106018,66.035728 
	C38.208225,68.452171 39.210831,70.208595 39.906811,71.963486 
	C39.401340,72.006012 39.202488,72.050087 38.651611,71.930656 
	C36.535488,71.486450 34.771397,71.205765 33.005238,70.958321 
	C33.003170,70.991562 33.064060,70.964561 32.938591,70.641129 
	C31.556067,69.840981 30.299011,69.364265 28.957306,68.604279 
	C28.260761,67.861427 27.648870,67.401848 27.036982,66.942261 
	C27.036982,66.942261 27.004185,66.998329 26.975925,66.718903 
	C26.640480,66.270630 26.333296,66.101791 26.026112,65.932945 
	C26.026112,65.932945 26.004915,65.995132 25.979212,65.715126 
	C25.643856,65.267647 25.334204,65.100182 25.024553,64.932709 
	C25.024553,64.932709 25.004946,64.995125 24.977646,64.716827 
	C24.640415,64.270439 24.330486,64.102356 24.020555,63.934277 
	C24.020555,63.934277 24.002722,63.995640 23.996174,63.613831 
	C22.371433,60.808510 20.753244,58.385006 19.135054,55.961498 
	C18.780617,53.763157 18.426178,51.564812 18.013533,49.005444 
	C22.484657,49.005444 26.761803,49.005444 31.499022,49.062023 
z"/>
<path fill="#040342" opacity="1.000000" stroke="none" 
	d="
M40.213432,71.965027 
	C39.210831,70.208595 38.208225,68.452171 37.187950,66.352158 
	C39.868385,67.663147 42.566494,69.317719 45.727692,71.199753 
	C46.359009,71.703102 46.595890,71.893631 46.872765,72.201370 
	C46.844105,72.403915 46.779583,72.808205 46.488098,72.840530 
	C45.805679,72.902069 45.414745,72.931290 44.704384,72.930672 
	C43.957291,72.895523 43.529633,72.890221 42.914665,72.667763 
	C42.186176,72.354202 41.645000,72.257790 40.880386,72.116074 
	C40.656956,72.070770 40.213432,71.965027 40.213432,71.965027 
z"/>
<path fill="#100128" opacity="1.000000" stroke="none" 
	d="
M46.901424,71.998825 
	C46.595890,71.893631 46.359009,71.703102 46.097252,71.215202 
	C47.422890,70.666183 48.842060,70.329178 50.629211,69.969162 
	C50.998791,70.116058 51.000401,70.285965 50.984543,70.944489 
	C50.967083,71.433105 50.918163,71.898468 50.520508,71.925018 
	C49.049042,71.967331 47.975231,71.983078 46.901424,71.998825 
z"/>
<path fill="#BF1717" opacity="1.000000" stroke="none" 
	d="
M49.012367,44.960495 
	C54.590595,45.214237 60.168827,45.467976 65.933334,46.037861 
	C60.743626,46.496246 55.367641,46.638489 49.412621,46.610985 
	C48.533051,46.514530 48.232506,46.587818 47.931965,46.661106 
	C46.833904,46.669067 45.735844,46.677025 44.252899,46.522369 
	C45.008472,45.896240 46.148930,45.432724 47.894699,44.974060 
	C48.670799,44.972775 48.841583,44.966637 49.012367,44.960495 
z"/>
<path fill="#340203" opacity="1.000000" stroke="none" 
	d="
M18.856983,55.795654 
	C20.753244,58.385006 22.371433,60.808510 24.025375,63.600861 
	C22.090113,62.390015 19.824677,61.054562 18.244961,59.150269 
	C17.065918,57.728962 16.772690,55.572826 16.121264,53.371544 
	C16.964663,53.876045 17.771788,54.752926 18.856983,55.795654 
z"/>
<path fill="#BF1717" opacity="1.000000" stroke="none" 
	d="
M33.319138,46.502350 
	C35.847332,46.137951 38.813332,45.946102 41.954155,46.062996 
	C39.338299,46.472794 36.547623,46.573845 33.319138,46.502350 
z"/>
<path fill="#BF1717" opacity="1.000000" stroke="none" 
	d="
M19.273193,46.509270 
	C20.426531,45.989952 21.966948,45.645027 23.728104,45.756920 
	C23.948841,46.213734 23.850452,46.688477 23.850452,46.688477 
	C22.453726,46.686871 21.056999,46.685265 19.273193,46.509270 
z"/>
<path fill="#BF1717" opacity="1.000000" stroke="none" 
	d="
M25.898796,45.764015 
	C26.582523,45.792141 27.266251,45.820271 28.047396,46.067657 
	C27.882490,46.348339 27.620169,46.409771 26.931841,46.373962 
	C26.505836,46.276726 26.388607,46.200970 26.258667,46.100124 
	C26.128725,45.999279 25.898796,45.764015 25.898796,45.764015 
z"/>
<path fill="#871113" opacity="1.000000" stroke="none" 
	d="
M24.264431,46.766235 
	C23.850452,46.688477 23.948841,46.213734 23.994415,45.973427 
	C24.453636,45.770275 24.867283,45.807423 25.589863,45.804295 
	C25.898796,45.764015 26.128725,45.999279 26.215122,46.174541 
	C26.301519,46.349804 26.313583,46.524544 26.313583,46.524544 
	C25.768526,46.631027 25.223467,46.737511 24.264431,46.766235 
z"/>
<path fill="#871113" opacity="1.000000" stroke="none" 
	d="
M15.504334,47.059616 
	C15.142190,46.929871 15.120257,46.761673 15.331060,46.304138 
	C15.563797,46.014801 16.007210,45.920193 16.007210,45.920193 
	C16.321720,45.991093 16.604246,46.127983 17.011982,46.506546 
	C16.727634,46.795208 16.286091,46.908188 15.504334,47.059616 
z"/>
<path fill="#BF1717" opacity="1.000000" stroke="none" 
	d="
M30.170811,46.464691 
	C30.232523,46.228172 30.628902,46.091549 31.089428,46.129463 
	C30.937542,46.390862 30.721512,46.477722 30.170811,46.464691 
z"/>
<path fill="#871113" opacity="1.000000" stroke="none" 
	d="
M48.215042,46.732048 
	C48.232506,46.587818 48.533051,46.514530 48.952194,46.565784 
	C48.879906,46.727879 48.689011,46.765430 48.215042,46.732048 
z"/>
<path fill="#E50203" opacity="1.000000" stroke="none" 
	d="
M26.413990,46.507389 
	C26.313583,46.524544 26.301519,46.349804 26.345062,46.275387 
	C26.388607,46.200970 26.505836,46.276726 26.537539,46.285381 
	C26.569241,46.294037 26.514395,46.490234 26.413990,46.507389 
z"/>
<path fill="#37000A" opacity="1.000000" stroke="none" 
	d="
M50.918163,71.898468 
	C50.918163,71.898468 50.967083,71.433105 50.983330,71.199356 
	C52.010376,70.929665 53.021172,70.893723 54.757431,70.903732 
	C55.714130,70.986885 55.945358,71.024086 56.176582,71.061295 
	C56.176582,71.061295 56.093830,71.515030 56.066345,71.743637 
	C56.038857,71.972237 55.987984,72.024292 55.679462,71.983444 
	C54.918503,71.972214 54.466064,72.001816 53.646885,72.010887 
	C52.549019,72.029320 51.817898,72.068291 51.043831,72.055710 
	C51.000889,72.004143 50.918163,71.898468 50.918163,71.898468 
z"/>
<path fill="#210004" opacity="1.000000" stroke="none" 
	d="
M56.301849,70.904343 
	C55.945358,71.024086 55.714130,70.986885 55.136124,70.881523 
	C54.789352,70.813370 54.901627,70.404282 54.937866,70.195160 
	C55.244953,70.034164 55.515804,70.082275 56.184223,70.253555 
	C56.581791,70.376717 56.427120,70.747383 56.301849,70.904343 
z"/>
<path fill="#D00B08" opacity="1.000000" stroke="none" 
	d="
M69.786942,78.648659 
	C69.402222,78.889244 69.133087,79.003761 68.697098,79.287659 
	C68.196915,79.534561 67.887054,79.667267 67.177940,79.693756 
	C66.177979,79.712685 65.577286,79.837830 64.976585,79.962982 
	C64.979073,78.596237 64.981560,77.229485 65.262177,75.432236 
	C65.729774,74.982841 65.919228,74.963936 66.441879,74.855392 
	C66.972351,74.647392 67.169617,74.529053 67.366882,74.410721 
	C67.729446,74.517555 68.092003,74.624390 68.826042,75.065918 
	C69.475098,75.596588 69.752678,75.792557 70.033752,76.340042 
	C70.040962,77.160294 70.044670,77.629028 70.048386,78.097771 
	C70.048386,78.097771 69.879044,78.467422 69.786942,78.648659 
z"/>
<path fill="#9C2727" opacity="1.000000" stroke="none" 
	d="
M70.386475,78.072105 
	C70.044670,77.629028 70.040962,77.160294 70.039276,76.085800 
	C70.052269,75.310822 70.063225,75.141586 70.074188,74.972351 
	C71.392059,74.991608 72.709938,75.010864 74.418228,75.064941 
	C74.564491,75.507454 74.320343,75.915154 73.937897,76.522011 
	C72.774582,77.162926 71.749573,77.604683 70.386475,78.072105 
z"/>
<path fill="#6F0801" opacity="1.000000" stroke="none" 
	d="
M67.398697,74.310036 
	C67.169617,74.529053 66.972351,74.647392 66.434113,74.593216 
	C66.111488,74.246468 66.129852,74.072243 66.148224,73.898026 
	C66.375641,73.903938 66.603050,73.909859 67.169388,73.964401 
	C67.508324,74.013031 67.430504,74.209351 67.398697,74.310036 
z"/>
<path fill="#BC130F" opacity="1.000000" stroke="none" 
	d="
M69.804749,74.912857 
	C70.063225,75.141586 70.052269,75.310822 70.035782,75.734291 
	C69.752678,75.792557 69.475098,75.596588 69.092834,75.162994 
	C69.170532,74.901367 69.352921,74.877365 69.804749,74.912857 
z"/>
<path fill="#210004" opacity="1.000000" stroke="none" 
	d="
M61.498001,72.705338 
	C61.498001,72.705338 61.510696,72.844475 61.416237,72.462730 
	C61.222122,71.874672 61.122459,71.668365 61.025742,71.427353 
	C61.028679,71.392639 61.033737,71.323143 61.033737,71.323143 
	C61.033737,71.323143 61.500465,71.200165 61.738449,71.163925 
	C61.976433,71.127678 61.968140,71.410423 61.857582,71.810127 
	C61.664017,72.374992 61.581009,72.540161 61.498001,72.705338 
z"/>
<path fill="#C60D0E" opacity="1.000000" stroke="none" 
	d="
M61.858810,72.816025 
	C61.581009,72.540161 61.664017,72.374992 61.850609,71.951385 
	C62.211086,71.967331 62.467983,72.241714 62.846611,72.769287 
	C62.718769,72.990555 62.469196,72.958633 61.858810,72.816025 
z"/>
<path fill="#6F0801" opacity="1.000000" stroke="none" 
	d="
M63.969353,73.317291 
	C64.095306,73.448158 63.674644,73.583405 63.674644,73.583405 
	C63.674644,73.583405 63.308590,73.336021 63.240303,73.124588 
	C63.420502,72.943680 63.644295,73.034767 63.969353,73.317291 
z"/>
<path fill="#BC130F" opacity="1.000000" stroke="none" 
	d="
M65.851334,73.890015 
	C66.129852,74.072243 66.111488,74.246468 66.100906,74.682861 
	C65.919228,74.963936 65.729774,74.982841 65.255081,75.022263 
	C64.964203,74.868011 64.958557,74.693237 64.962021,74.256256 
	C65.165565,73.956696 65.360008,73.919350 65.851334,73.890015 
z"/>
<path fill="#280100" opacity="1.000000" stroke="none" 
	d="
M60.846680,71.236382 
	C61.033737,71.323143 61.028679,71.392639 60.789196,71.511650 
	C60.394230,71.692780 60.238743,71.754898 60.083260,71.817009 
	C60.083260,71.817009 60.192768,71.808823 60.211567,71.755203 
	C60.230366,71.701584 60.249630,71.352043 60.261803,71.177780 
	C60.273979,71.003510 60.659626,71.149620 60.846680,71.236382 
z"/>
<path fill="#330101" opacity="1.000000" stroke="none" 
	d="
M21.926605,26.947844 
	C22.244183,26.843390 22.518143,26.670019 23.110971,26.136425 
	C23.644033,25.561363 23.814611,25.277609 23.985189,24.993855 
	C23.985189,24.993855 24.001139,24.999590 24.350567,25.000410 
	C25.407932,24.977518 26.115866,24.953806 26.828583,25.296261 
	C25.432861,26.770735 24.032362,27.879040 22.631861,28.987347 
	C22.946949,29.262348 23.262035,29.537348 23.577122,29.812349 
	C27.366356,29.812349 31.155590,29.812349 35.146507,30.102909 
	C36.593868,30.203709 37.839539,30.013950 39.085213,29.824192 
	C42.817070,29.699986 46.548931,29.575781 50.863201,29.668926 
	C55.217678,29.886276 58.989742,29.886276 63.169308,29.886276 
	C62.722652,28.114193 62.342297,26.605145 61.979572,24.818321 
	C61.999718,24.355310 62.002228,24.170078 62.210152,23.960508 
	C62.415565,23.936169 62.826126,23.987141 63.169113,24.099300 
	C64.612144,26.776091 65.712173,29.340721 66.360352,31.932381 
	C52.217045,31.978937 38.525467,32.031612 24.834362,31.972898 
	C23.255629,31.966129 21.679554,31.339285 20.179623,30.680660 
	C20.813536,29.223541 21.370070,28.085691 21.926605,26.947844 
z"/>
<path fill="#02011A" opacity="1.000000" stroke="none" 
	d="
M85.520203,33.093857 
	C84.877419,33.097015 84.687416,33.074348 83.929794,32.880322 
	C82.926323,31.772055 82.490463,30.835148 82.508514,29.939953 
	C86.617691,29.981667 90.272949,29.981667 95.045494,29.981667 
	C89.654213,23.569141 84.648552,19.188278 76.799713,18.951242 
	C76.021088,18.550268 75.508987,18.269579 74.984230,17.683548 
	C74.956757,17.175009 74.941933,16.971811 74.927101,16.768616 
	C80.042534,15.008768 84.179497,17.376528 88.875122,19.990852 
	C89.478302,20.049629 89.955826,20.082603 89.955826,20.082603 
	C89.955826,20.082603 89.973686,20.540497 90.089539,20.994410 
	C90.403122,21.729660 90.669067,21.910969 91.003220,21.992249 
	C91.500252,22.576881 91.997276,23.161516 92.887848,24.157684 
	C94.164810,25.065628 95.048248,25.562040 95.931679,26.058451 
	C95.931679,26.058451 95.994881,26.002804 96.021973,26.417976 
	C96.348984,28.881468 96.648895,30.929783 96.948807,32.978100 
	C93.290207,33.008080 89.631599,33.038055 85.520203,33.093857 
z"/>
<path fill="#090419" opacity="1.000000" stroke="none" 
	d="
M39.026695,29.496124 
	C37.839539,30.013950 36.593868,30.203709 35.155552,29.730610 
	C36.293449,26.079935 37.623985,23.092121 38.974815,19.800375 
	C39.020939,19.091232 39.046772,18.686018 39.072609,18.280806 
	C40.216331,17.740879 41.360054,17.200953 42.896309,16.301807 
	C43.445278,15.884599 43.601715,15.826612 44.080662,15.730632 
	C44.756397,15.439146 45.109623,15.185653 45.462845,14.932159 
	C43.751457,18.008099 41.923031,21.026817 40.379196,24.184671 
	C39.633022,25.710947 39.421677,27.498695 39.026695,29.496124 
z"/>
<path fill="#FCFAF8" opacity="1.000000" stroke="none" 
	d="
M61.961937,25.096098 
	C62.342297,26.605145 62.722652,28.114193 63.169308,29.886276 
	C58.989742,29.886276 55.217678,29.886276 51.244064,29.512016 
	C51.477806,28.805569 51.913101,28.473383 52.944534,28.038063 
	C54.071751,26.974020 54.602829,26.013113 55.133904,25.052206 
	C55.133904,25.052206 55.044212,25.042236 55.363476,25.032547 
	C57.440079,24.685947 59.197418,24.349035 61.013885,24.275393 
	C61.369320,24.724472 61.665630,24.910284 61.961937,25.096098 
z"/>
<path fill="#07021D" opacity="1.000000" stroke="none" 
	d="
M60.954758,24.012123 
	C59.197418,24.349035 57.440079,24.685947 55.367825,25.077457 
	C56.632896,23.690626 58.212883,22.249193 60.238632,20.736507 
	C60.684395,20.665257 60.787354,20.794981 60.850357,20.854462 
	C60.913357,20.913942 61.040447,21.031733 61.106922,21.295576 
	C61.664818,22.067726 62.156239,22.576033 62.700897,23.308334 
	C62.754139,23.532330 62.826126,23.987141 62.826126,23.987141 
	C62.826126,23.987141 62.415565,23.936169 61.947426,23.964367 
	C61.304440,23.999086 61.129597,24.005606 60.954758,24.012123 
z"/>
<path fill="#04034E" opacity="1.000000" stroke="none" 
	d="
M97.280640,32.818871 
	C96.648895,30.929783 96.348984,28.881468 95.996071,26.451038 
	C100.582230,27.231701 99.482002,29.848240 97.280640,32.818871 
z"/>
<path fill="#210004" opacity="1.000000" stroke="none" 
	d="
M74.633255,16.794685 
	C74.941933,16.971811 74.956757,17.175009 74.980469,17.999649 
	C75.002327,19.042002 75.015297,19.462910 74.793541,19.842606 
	C74.558815,19.801397 74.086990,19.733837 74.033585,19.567074 
	C73.853386,19.192314 73.675720,19.046206 73.227654,18.674410 
	C71.963341,18.551481 70.918533,18.716127 69.510361,18.873690 
	C68.427002,18.786703 67.707001,18.706799 66.954437,18.468086 
	C66.921860,18.309277 66.843597,17.994633 66.843597,17.994633 
	C67.064255,17.731068 67.284904,17.467501 68.167366,17.094221 
	C70.271935,16.927736 71.714691,16.870962 73.157448,16.814188 
	C73.551437,16.816378 73.945419,16.818565 74.633255,16.794685 
z"/>
<path fill="#C3110F" opacity="1.000000" stroke="none" 
	d="
M43.758148,15.768624 
	C43.601715,15.826612 43.445278,15.884599 43.051613,16.025700 
	C42.334488,15.599737 41.854591,15.090660 41.374691,14.581585 
	C42.439034,14.175183 43.503376,13.768781 44.774361,13.604408 
	C45.017303,14.061008 44.950211,14.235783 44.430973,14.745287 
	C43.974197,15.336082 43.866173,15.552354 43.758148,15.768624 
z"/>
<path fill="#07021D" opacity="1.000000" stroke="none" 
	d="
M60.567802,20.555889 
	C61.752831,20.018024 62.937859,19.480158 64.577599,18.977839 
	C65.032310,19.013386 65.101517,19.127514 64.943390,19.364748 
	C64.159492,20.033855 63.533726,20.465727 62.595188,20.888908 
	C61.868427,20.930721 61.454437,20.981228 61.040447,21.031733 
	C61.040447,21.031733 60.913357,20.913942 60.789146,20.806751 
	C60.664940,20.699558 60.567802,20.555889 60.567802,20.555889 
z"/>
<path fill="#02011A" opacity="1.000000" stroke="none" 
	d="
M72.880920,16.584349 
	C71.714691,16.870962 70.271935,16.927736 68.397751,16.975002 
	C69.512344,16.761833 71.058365,16.558170 72.880920,16.584349 
z"/>
<path fill="#04034E" opacity="1.000000" stroke="none" 
	d="
M95.905411,25.708500 
	C95.048248,25.562040 94.164810,25.065628 93.156235,24.275738 
	C93.980446,24.441025 94.929794,24.899788 95.905411,25.708500 
z"/>
<path fill="#07021D" opacity="1.000000" stroke="none" 
	d="
M54.782425,25.062357 
	C54.602829,26.013113 54.071751,26.974020 53.186695,27.897936 
	C53.365456,26.931465 53.898201,26.001987 54.782425,25.062357 
z"/>
<path fill="#02011A" opacity="1.000000" stroke="none" 
	d="
M66.566696,18.008846 
	C66.843597,17.994633 66.921860,18.309277 66.675407,18.656090 
	C65.986473,19.044439 65.543999,19.085976 65.101517,19.127514 
	C65.101517,19.127514 65.032310,19.013386 64.996475,18.956610 
	C65.403702,18.607574 65.846748,18.315317 66.566696,18.008846 
z"/>
<path fill="#04034E" opacity="1.000000" stroke="none" 
	d="
M89.891571,19.900537 
	C89.955826,20.082603 89.478302,20.049629 89.239853,20.029078 
	C89.276711,19.911840 89.552017,19.815155 89.891571,19.900537 
z"/>
<path fill="#812D2F" opacity="1.000000" stroke="none" 
	d="
M60.554184,20.526573 
	C60.567802,20.555889 60.664940,20.699558 60.726147,20.747269 
	C60.787354,20.794981 60.684395,20.665257 60.619583,20.615959 
	C60.554768,20.566662 60.540565,20.497259 60.554184,20.526573 
z"/>
<path fill="#04034E" opacity="1.000000" stroke="none" 
	d="
M90.897018,21.773449 
	C90.669067,21.910969 90.403122,21.729660 90.107971,21.222790 
	C90.333031,21.095730 90.593117,21.281528 90.897018,21.773449 
z"/>
<path fill="#500306" opacity="1.000000" stroke="none" 
	d="
M44.080662,15.730632 
	C43.866173,15.552354 43.974197,15.336082 44.344353,14.861092 
	C44.606480,14.602374 45.047821,14.724507 45.255333,14.828333 
	C45.109623,15.185653 44.756397,15.439146 44.080662,15.730632 
z"/>
<path fill="#DE0605" opacity="1.000000" stroke="none" 
	d="
M64.943390,19.364748 
	C65.543999,19.085976 65.986473,19.044439 66.707977,18.814899 
	C67.707001,18.706799 68.427002,18.786703 69.951050,18.941326 
	C71.652458,18.998028 72.549812,18.980005 73.447159,18.961983 
	C73.675720,19.046206 73.853386,19.192314 74.063721,19.835550 
	C74.381889,20.529459 74.616493,20.788130 74.900902,21.062061 
	C74.950699,21.077320 74.930511,21.179510 74.951675,21.530949 
	C74.984360,22.586683 74.995880,23.290979 75.007401,23.995274 
	C72.537544,26.962933 70.067688,29.930592 67.249847,32.666122 
	C66.871971,32.257782 66.842087,32.081566 66.812210,31.905352 
	C65.712173,29.340721 64.612144,26.776091 63.169113,24.099300 
	C62.826126,23.987141 62.754139,23.532330 62.818821,22.956898 
	C62.891655,21.886845 62.899807,21.392223 62.907959,20.897600 
	C63.533726,20.465727 64.159492,20.033855 64.943390,19.364748 
z"/>
<path fill="#FAFAF9" opacity="1.000000" stroke="none" 
	d="
M38.954525,20.104305 
	C37.623985,23.092121 36.293449,26.079935 34.953865,29.440050 
	C31.155590,29.812349 27.366356,29.812349 23.577122,29.812349 
	C23.262035,29.537348 22.946949,29.262348 22.631861,28.987347 
	C24.032362,27.879040 25.432861,26.770735 26.968983,25.013775 
	C27.797894,23.567602 28.491186,22.770082 29.184475,21.972563 
	C29.640663,21.653299 30.096851,21.334036 31.065781,21.035259 
	C32.056633,21.077415 32.534744,21.099085 33.397461,21.059128 
	C35.506218,20.699770 37.230370,20.402039 38.954525,20.104305 
z"/>
<path fill="#A53939" opacity="1.000000" stroke="none" 
	d="
M66.360352,31.932381 
	C66.842087,32.081566 66.871971,32.257782 66.914398,32.701530 
	C66.207115,33.016041 65.487297,33.063019 64.058784,33.083725 
	C62.884399,33.094570 62.418701,33.131683 61.953003,33.168793 
	C59.278397,33.151611 56.603794,33.134430 53.015144,33.078979 
	C46.721096,33.080544 41.341099,33.120377 35.961098,33.160210 
	C32.294979,33.146229 28.628859,33.132252 24.125631,33.082764 
	C22.521788,33.055752 21.755053,33.064259 20.988317,33.072765 
	C20.988317,33.072765 20.523094,33.012814 20.286041,32.660431 
	C20.066742,31.872009 20.084494,31.435972 20.102245,30.999931 
	C21.679554,31.339285 23.255629,31.966129 24.834362,31.972898 
	C38.525467,32.031612 52.217045,31.978937 66.360352,31.932381 
z"/>
<path fill="#C11110" opacity="1.000000" stroke="none" 
	d="
M48.062584,74.162537 
	C45.715607,74.775223 43.187878,76.254021 41.061367,75.810242 
	C37.282440,75.021637 33.746662,73.067917 30.470613,71.276489 
	C31.576059,70.955780 32.320061,70.960167 33.064060,70.964561 
	C33.064060,70.964561 33.003170,70.991562 33.078037,71.332932 
	C35.088074,72.173325 37.023239,72.672348 39.217110,73.451477 
	C41.287437,73.780632 43.099064,73.829697 45.290131,73.928406 
	C46.429420,73.952171 47.189266,73.926285 47.978554,73.965469 
	C48.007988,74.030540 48.062584,74.162537 48.062584,74.162537 
z"/>
<path fill="#BB1114" opacity="1.000000" stroke="none" 
	d="
M34.967319,85.575989 
	C33.645256,85.938400 32.250801,85.949982 30.440720,85.911118 
	C26.437405,83.445724 22.849714,81.030792 19.144581,78.293808 
	C24.316399,80.389557 29.605663,82.807358 34.967319,85.575989 
z"/>
<path fill="#2C0204" opacity="1.000000" stroke="none" 
	d="
M82.054611,29.898241 
	C82.490463,30.835148 82.926323,31.772055 83.643036,32.868385 
	C83.521111,35.193840 83.118340,37.359863 82.424698,39.420860 
	C81.788918,38.117802 81.444016,36.919773 81.099113,35.721748 
	C81.056129,35.337456 81.013145,34.953163 80.908401,34.035526 
	C80.605217,33.286636 80.363808,33.071087 80.122391,32.855541 
	C80.122391,32.855541 80.176643,32.925274 80.284958,32.697075 
	C80.295158,31.952179 80.197044,31.435476 80.092453,30.586815 
	C79.687668,29.532890 79.289360,28.810926 78.891052,28.088963 
	C78.760948,27.452145 78.630844,26.815331 78.662109,25.699276 
	C78.823479,25.220037 79.097702,24.910482 79.410469,25.047083 
	C80.500359,26.755203 81.277481,28.326723 82.054611,29.898241 
z"/>
<path fill="#BB1114" opacity="1.000000" stroke="none" 
	d="
M18.997440,77.625061 
	C16.688005,75.874817 14.348387,73.781487 12.035569,71.339172 
	C14.363998,73.087448 16.665627,75.184708 18.997440,77.625061 
z"/>
<path fill="#BC110F" opacity="1.000000" stroke="none" 
	d="
M36.284927,33.416573 
	C41.341099,33.120377 46.721096,33.080544 52.569420,33.093834 
	C47.561413,33.322281 42.085083,33.497608 36.284927,33.416573 
z"/>
<path fill="#BC110F" opacity="1.000000" stroke="none" 
	d="
M28.860252,21.870586 
	C28.491186,22.770082 27.797894,23.567602 26.964203,24.647608 
	C26.115866,24.953806 25.407932,24.977518 24.345703,24.992893 
	C24.561787,22.577858 25.403412,20.554478 28.860252,21.870586 
z"/>
<path fill="#BC110F" opacity="1.000000" stroke="none" 
	d="
M20.179623,30.680660 
	C20.084494,31.435972 20.066742,31.872009 20.052887,32.635017 
	C16.966171,30.299240 19.164795,28.684494 21.578062,26.995531 
	C21.370070,28.085691 20.813536,29.223541 20.179623,30.680660 
z"/>
<path fill="#2A0207" opacity="1.000000" stroke="none" 
	d="
M38.974815,19.800375 
	C37.230370,20.402039 35.506218,20.699770 33.386909,20.764595 
	C32.983883,20.335493 32.976017,20.139299 32.968147,19.943108 
	C34.758545,19.340675 36.548939,18.738243 38.705971,18.208309 
	C39.046772,18.686018 39.020939,19.091232 38.974815,19.800375 
z"/>
<path fill="#BC191B" opacity="1.000000" stroke="none" 
	d="
M47.873444,86.179398 
	C48.357391,86.272964 48.183743,86.732925 48.102905,86.965584 
	C45.105896,87.064178 42.189720,86.930107 38.921486,86.536133 
	C41.509449,86.212761 44.449474,86.149300 47.873444,86.179398 
z"/>
<path fill="#C60D0E" opacity="1.000000" stroke="none" 
	d="
M54.013626,72.031425 
	C54.466064,72.001816 54.918503,71.972214 55.705490,72.008881 
	C54.624557,72.720337 53.209068,73.365517 51.404930,73.766815 
	C51.016277,73.522942 51.027996,73.039886 50.996586,73.030304 
	C50.965176,73.020729 50.957111,72.955551 51.298119,72.979187 
	C52.430626,72.679016 53.222126,72.355217 54.013626,72.031425 
z"/>
<path fill="#BE1414" opacity="1.000000" stroke="none" 
	d="
M75.317612,23.998398 
	C74.995880,23.290979 74.984360,22.586683 75.328796,21.537725 
	C76.160393,21.092323 76.636032,20.991585 77.068115,20.897142 
	C77.024551,20.903439 77.109840,20.917822 76.934738,21.238432 
	C76.838478,22.034521 76.917313,22.510000 76.979111,23.245579 
	C76.931114,23.676676 76.900169,23.847672 76.869225,24.018665 
	C76.455421,24.012951 76.041618,24.007236 75.317612,23.998398 
z"/>
<path fill="#340203" opacity="1.000000" stroke="none" 
	d="
M26.860283,67.265320 
	C27.648870,67.401848 28.260761,67.861427 28.947708,68.825249 
	C29.022764,69.329483 29.008448,69.771614 29.008450,69.771614 
	C28.233494,69.043869 27.458540,68.316124 26.860283,67.265320 
z"/>
<path fill="#300101" opacity="1.000000" stroke="none" 
	d="
M29.226820,69.913040 
	C29.008448,69.771614 29.022764,69.329483 29.032360,69.108521 
	C30.299011,69.364265 31.556067,69.840981 32.938591,70.641129 
	C32.320061,70.960167 31.576059,70.955780 30.458139,70.901184 
	C29.871212,70.585472 29.658201,70.319969 29.226820,69.913040 
z"/>
<path fill="#A4282A" opacity="1.000000" stroke="none" 
	d="
M26.450340,7.955122 
	C27.198362,7.361217 28.265753,6.802216 29.643961,6.275663 
	C28.893087,6.868750 27.831398,7.429387 26.450340,7.955122 
z"/>
<path fill="#CA0E0A" opacity="1.000000" stroke="none" 
	d="
M80.098938,30.918776 
	C80.197044,31.435476 80.295158,31.952179 80.311798,32.661991 
	C79.673897,32.350277 79.117470,31.845451 79.064926,31.150879 
	C79.745537,30.947014 79.922241,30.932896 80.098938,30.918776 
z"/>
<path fill="#BF4633" opacity="1.000000" stroke="none" 
	d="
M81.016296,36.035969 
	C81.444016,36.919773 81.788918,38.117802 82.182678,39.704430 
	C82.154594,40.242386 82.077644,40.391739 81.890289,40.767578 
	C81.494530,40.878227 81.276642,40.685936 81.056595,39.836830 
	C80.931465,38.501034 80.875961,37.745609 80.820457,36.990189 
	C80.858124,36.776855 80.895798,36.563522 81.016296,36.035969 
z"/>
<path fill="#2C0204" opacity="1.000000" stroke="none" 
	d="
M77.047340,24.241600 
	C76.900169,23.847672 76.931114,23.676676 77.261726,23.242313 
	C77.749496,22.969065 77.937607,22.959179 78.413498,23.053480 
	C78.833420,23.741941 78.965561,24.326212 79.097702,24.910482 
	C79.097702,24.910482 78.823479,25.220037 78.677933,25.373707 
	C78.096748,25.173094 77.661102,24.818813 77.047340,24.241600 
z"/>
<path fill="#CA0E0A" opacity="1.000000" stroke="none" 
	d="
M80.607285,37.198772 
	C80.875961,37.745609 80.931465,38.501034 80.964325,39.635468 
	C80.759155,39.145443 80.576637,38.276398 80.607285,37.198772 
z"/>
<path fill="#B12C2B" opacity="1.000000" stroke="none" 
	d="
M64.944489,80.180374 
	C65.577286,79.837830 66.177979,79.712685 66.934464,79.765312 
	C67.061745,80.108322 67.033257,80.273560 66.964539,80.687096 
	C66.924309,80.935387 66.969429,80.956284 66.615250,80.942398 
	C65.798607,80.897522 65.336128,80.866531 64.873657,80.835541 
	C64.873657,80.835541 64.912392,80.397758 64.944489,80.180374 
z"/>
<path fill="#A41318" opacity="1.000000" stroke="none" 
	d="
M5.904335,59.754379 
	C5.548992,59.643108 5.259587,59.145893 4.983396,58.075714 
	C5.025738,57.314636 5.054866,57.126526 5.308818,56.965416 
	C5.533641,56.992424 5.985428,57.023834 5.985428,57.023834 
	C5.980377,57.805370 5.975325,58.586906 5.904335,59.754379 
z"/>
<path fill="#BC110F" opacity="1.000000" stroke="none" 
	d="
M21.178265,33.307533 
	C21.755053,33.064259 22.521788,33.055752 23.669172,33.101730 
	C23.155952,33.284908 22.262081,33.413605 21.178265,33.307533 
z"/>
<path fill="#690503" opacity="1.000000" stroke="none" 
	d="
M5.083995,56.938412 
	C5.054866,57.126526 5.025738,57.314636 4.937231,57.782394 
	C4.551771,57.260925 4.225689,56.459812 3.814640,55.330154 
	C3.729671,55.001606 3.895089,54.969292 4.211985,54.985580 
	C4.528880,55.001873 4.995189,55.033005 4.995189,55.033005 
	C4.995189,55.033005 5.094084,55.514664 5.085804,55.986534 
	C5.077524,56.458405 5.083995,56.938412 5.083995,56.938412 
z"/>
<path fill="#881015" opacity="1.000000" stroke="none" 
	d="
M80.092453,30.586815 
	C79.922241,30.932896 79.745537,30.947014 79.303452,30.971149 
	C78.987183,30.258308 78.936272,29.535452 78.888206,28.450779 
	C79.289360,28.810926 79.687668,29.532890 80.092453,30.586815 
z"/>
<path fill="#42050A" opacity="1.000000" stroke="none" 
	d="
M64.683472,80.894394 
	C65.336128,80.866531 65.798607,80.897522 66.609283,80.920410 
	C66.904152,81.254494 66.743240,81.534927 66.261421,81.875870 
	C65.594376,82.009354 65.140678,82.020569 64.375534,81.775215 
	C64.064079,81.518646 64.100876,81.020645 64.100876,81.020645 
	C64.100876,81.020645 64.493294,80.953247 64.683472,80.894394 
z"/>
<path fill="#570A0C" opacity="1.000000" stroke="none" 
	d="
M32.690697,19.963444 
	C32.976017,20.139299 32.983883,20.335493 33.002304,20.826221 
	C32.534744,21.099085 32.056633,21.077415 31.336071,20.947433 
	C31.533497,20.554008 31.973368,20.268894 32.690697,19.963444 
z"/>
<path fill="#AB1918" opacity="1.000000" stroke="none" 
	d="
M5.015058,54.687889 
	C4.995189,55.033005 4.528880,55.001873 4.295919,54.993118 
	C4.011488,54.233265 3.960017,53.482166 3.960482,52.357513 
	C4.353255,52.770229 4.694091,53.556499 5.015058,54.687889 
z"/>
<path fill="#AD2119" opacity="1.000000" stroke="none" 
	d="
M51.027996,73.039886 
	C51.027996,73.039886 51.016277,73.522942 51.012215,73.764572 
	C50.270191,74.030861 49.532227,74.055519 48.428425,74.121353 
	C48.062584,74.162537 48.007988,74.030540 47.993904,73.755753 
	C47.979816,73.480957 48.041824,73.062508 48.414501,73.040176 
	C49.534119,73.025192 50.281055,73.032539 51.027996,73.039886 
z"/>
<path fill="#AF2B29" opacity="1.000000" stroke="none" 
	d="
M62.665253,81.980530 
	C62.557507,82.383537 62.104359,82.789551 61.340698,83.305145 
	C61.460072,82.937675 61.889961,82.460602 62.665253,81.980530 
z"/>
<path fill="#BC110F" opacity="1.000000" stroke="none" 
	d="
M62.123177,33.362236 
	C62.418701,33.131683 62.884399,33.094570 63.698105,33.107674 
	C63.461857,33.290489 62.877602,33.423080 62.123177,33.362236 
z"/>
<path fill="#BF1717" opacity="1.000000" stroke="none" 
	d="
M15.907469,45.767010 
	C16.007210,45.920193 15.563797,46.014801 15.340793,46.049892 
	C15.347768,45.927933 15.577747,45.770882 15.907469,45.767010 
z"/>
<path fill="#BC110F" opacity="1.000000" stroke="none" 
	d="
M23.749619,25.081787 
	C23.814611,25.277609 23.644033,25.561363 23.228821,25.921646 
	C23.160807,25.722023 23.337429,25.445871 23.749619,25.081787 
z"/>
<path fill="#AF2B29" opacity="1.000000" stroke="none" 
	d="
M63.839478,81.087105 
	C64.100876,81.020645 64.064079,81.518646 64.035660,81.766815 
	C63.835350,82.023499 63.663452,82.032013 63.233906,82.022232 
	C63.176861,81.720474 63.377472,81.437019 63.839478,81.087105 
z"/>
<path fill="#950E17" opacity="1.000000" stroke="none" 
	d="
M6.358091,29.940826 
	C6.092183,29.924038 6.033948,29.736813 5.927430,29.259205 
	C5.879147,28.968819 6.309151,28.857367 6.522751,28.798840 
	C6.679489,29.083672 6.622626,29.427032 6.358091,29.940826 
z"/>
<path fill="#D60909" opacity="1.000000" stroke="none" 
	d="
M48.917953,44.800362 
	C48.841583,44.966637 48.670799,44.972775 48.243851,44.967918 
	C48.266308,44.851357 48.544926,44.745792 48.917953,44.800362 
z"/>
<path fill="#CA0E0A" opacity="1.000000" stroke="none" 
	d="
M80.147392,33.093082 
	C80.363808,33.071087 80.605217,33.286636 80.828339,33.756184 
	C80.505005,33.870495 80.292450,33.643974 80.147392,33.093082 
z"/>
<path fill="#340203" opacity="1.000000" stroke="none" 
	d="
M25.942413,66.283646 
	C26.333296,66.101791 26.640480,66.270630 27.006401,66.707672 
	C26.662996,66.862038 26.260857,66.748192 25.942413,66.283646 
z"/>
<path fill="#340203" opacity="1.000000" stroke="none" 
	d="
M24.946663,65.281387 
	C25.334204,65.100182 25.643856,65.267647 26.010319,65.704575 
	C25.667677,65.859367 25.268223,65.744713 24.946663,65.281387 
z"/>
<path fill="#340203" opacity="1.000000" stroke="none" 
	d="
M23.947575,64.280449 
	C24.330486,64.102356 24.640415,64.270439 25.008875,64.707085 
	C24.669800,64.859306 24.272196,64.742966 23.947575,64.280449 
z"/>
<path fill="#C60D0E" opacity="1.000000" stroke="none" 
	d="
M60.219528,72.112679 
	C60.238743,71.754898 60.394230,71.692780 60.786255,71.546364 
	C61.122459,71.668365 61.222122,71.874672 61.448189,72.400604 
	C61.168327,72.616272 60.762062,72.512314 60.219528,72.112679 
z"/>
<path fill="#D00B0B" opacity="1.000000" stroke="none" 
	d="
M5.308818,56.965416 
	C5.083995,56.938412 5.077524,56.458405 5.139681,56.226410 
	C5.477638,56.129791 5.689712,56.332016 5.911744,56.812462 
	C5.985428,57.023834 5.533641,56.992424 5.308818,56.965416 
z"/>
<path fill="#B61011" opacity="1.000000" stroke="none" 
	d="
M48.258446,10.931094 
	C48.195457,10.708653 48.390575,10.445856 48.827766,10.113325 
	C48.885414,10.325974 48.700989,10.608356 48.258446,10.931094 
z"/>
<path fill="#B61011" opacity="1.000000" stroke="none" 
	d="
M49.293716,9.995574 
	C49.227116,9.783705 49.411400,9.497078 49.850761,9.142587 
	C49.918758,9.356753 49.731678,9.638784 49.293716,9.995574 
z"/>
<path fill="#300101" opacity="1.000000" stroke="none" 
	d="
M38.958408,73.171371 
	C37.023239,72.672348 35.088074,72.173325 33.080105,71.299690 
	C34.771397,71.205765 36.535488,71.486450 38.642464,72.200043 
	C38.976372,72.812416 38.967392,72.991890 38.958408,73.171371 
z"/>
<path fill="#340000" opacity="1.000000" stroke="none" 
	d="
M39.217110,73.451477 
	C38.967392,72.991890 38.976372,72.812416 38.994495,72.363556 
	C39.202488,72.050087 39.401340,72.006012 39.906811,71.963486 
	C40.213432,71.965027 40.656956,72.070770 41.050156,72.341415 
	C41.996227,72.703003 42.549099,72.793953 43.101971,72.884903 
	C43.529633,72.890221 43.957291,72.895523 44.682777,73.161270 
	C44.980606,73.421722 44.910690,73.878754 44.910690,73.878754 
	C43.099064,73.829697 41.287437,73.780632 39.217110,73.451477 
z"/>
<path fill="#390001" opacity="1.000000" stroke="none" 
	d="
M50.996586,73.030304 
	C50.281055,73.032539 49.534119,73.025192 48.097122,72.985138 
	C47.197903,72.904358 46.988743,72.856277 46.779583,72.808205 
	C46.779583,72.808205 46.844105,72.403915 46.872765,72.201370 
	C47.975231,71.983078 49.049042,71.967331 50.520508,71.925018 
	C50.918163,71.898468 51.000889,72.004143 51.003860,72.266190 
	C51.006828,72.528229 50.957111,72.955551 50.957111,72.955551 
	C50.957111,72.955551 50.965176,73.020729 50.996586,73.030304 
z"/>
<path fill="#75090A" opacity="1.000000" stroke="none" 
	d="
M46.488098,72.840530 
	C46.988743,72.856277 47.197903,72.904358 47.724442,73.007469 
	C48.041824,73.062508 47.979816,73.480957 47.964466,73.690674 
	C47.189266,73.926285 46.429420,73.952171 45.290131,73.928406 
	C44.910690,73.878754 44.980606,73.421722 45.002209,73.191116 
	C45.414745,72.931290 45.805679,72.902069 46.488098,72.840530 
z"/>
<path fill="#1A0011" opacity="1.000000" stroke="none" 
	d="
M42.914665,72.667755 
	C42.549099,72.793953 41.996227,72.703003 41.273586,72.386711 
	C41.645000,72.257790 42.186176,72.354202 42.914665,72.667755 
z"/>
<path fill="#880F18" opacity="1.000000" stroke="none" 
	d="
M51.298119,72.979187 
	C50.957111,72.955551 51.006828,72.528229 51.046799,72.317749 
	C51.817898,72.068291 52.549019,72.029320 53.646885,72.010887 
	C53.222126,72.355217 52.430626,72.679016 51.298119,72.979187 
z"/>
<path fill="#3B0A06" opacity="1.000000" stroke="none" 
	d="
M61.013885,24.275391 
	C61.129597,24.005606 61.304440,23.999086 61.742008,23.988708 
	C62.002228,24.170078 61.999718,24.355310 61.979572,24.818321 
	C61.665630,24.910284 61.369320,24.724472 61.013885,24.275391 
z"/>
<path fill="#FBFBFB" opacity="1.000000" stroke="none" 
	d="
M79.410469,25.047083 
	C78.965561,24.326212 78.833420,23.741941 78.360977,22.733929 
	C77.717064,21.846066 77.413452,21.381945 77.109840,20.917822 
	C77.109840,20.917822 77.024551,20.903439 77.124084,20.593105 
	C77.171158,19.879023 77.118690,19.475275 77.066223,19.071527 
	C84.648552,19.188278 89.654213,23.569141 95.045494,29.981667 
	C90.272949,29.981667 86.617691,29.981667 82.508514,29.939953 
	C81.277481,28.326723 80.500359,26.755203 79.410469,25.047083 
z"/>
<path fill="#340A0B" opacity="1.000000" stroke="none" 
	d="
M76.799713,18.951242 
	C77.118690,19.475275 77.171158,19.879023 77.167648,20.586809 
	C76.636032,20.991585 76.160393,21.092323 75.307632,21.186287 
	C74.930511,21.179510 74.950699,21.077320 74.964828,20.774166 
	C74.995399,20.275280 75.011833,20.079548 75.028275,19.883816 
	C75.015297,19.462910 75.002327,19.042002 74.993118,18.304993 
	C75.508987,18.269579 76.021088,18.550268 76.799713,18.951242 
z"/>
<path fill="#812D2F" opacity="1.000000" stroke="none" 
	d="
M62.595188,20.888908 
	C62.899807,21.392223 62.891655,21.886845 62.765579,22.732903 
	C62.156239,22.576033 61.664818,22.067726 61.106922,21.295576 
	C61.454437,20.981228 61.868427,20.930721 62.595188,20.888908 
z"/>
<path fill="#B3514C" opacity="1.000000" stroke="none" 
	d="
M73.227654,18.674408 
	C72.549812,18.980005 71.652458,18.998028 70.314423,18.948410 
	C70.918533,18.716127 71.963341,18.551481 73.227654,18.674408 
z"/>
<path fill="#BE1414" opacity="1.000000" stroke="none" 
	d="
M74.793549,19.842606 
	C75.011833,20.079548 74.995399,20.275280 74.915031,20.758905 
	C74.616493,20.788130 74.381889,20.529459 74.117134,20.002314 
	C74.086990,19.733837 74.558815,19.801397 74.793549,19.842606 
z"/>
<path fill="#340A0B" opacity="1.000000" stroke="none" 
	d="
M76.934738,21.238432 
	C77.413452,21.381945 77.717064,21.846066 78.073196,22.629738 
	C77.937607,22.959179 77.749496,22.969065 77.278778,22.982214 
	C76.917313,22.510000 76.838478,22.034521 76.934738,21.238432 
z"/>
</svg>